<?xml version="1.0" encoding="UTF-8" standalone="no"?>
<!-- Created with Inkscape (http://www.inkscape.org/) -->

<svg
   xmlns:dc="http://purl.org/dc/elements/1.1/"
   xmlns:cc="http://creativecommons.org/ns#"
   xmlns:rdf="http://www.w3.org/1999/02/22-rdf-syntax-ns#"
   xmlns:svg="http://www.w3.org/2000/svg"
   xmlns="http://www.w3.org/2000/svg"
   xmlns:sodipodi="http://sodipodi.sourceforge.net/DTD/sodipodi-0.dtd"
   xmlns:inkscape="http://www.inkscape.org/namespaces/inkscape"
   width="240mm"
   height="120mm"
   viewBox="0 0 240 120"
   version="1.1"
   id="svg8"
   inkscape:version="0.92.5 (2060ec1f9f, 2020-04-08)"
   sodipodi:docname="ellips.svg">
  <defs
     id="defs2">
    <inkscape:path-effect
       effect="bspline"
       id="path-effect1361"
       is_visible="true"
       weight="33.333333"
       steps="2"
       helper_size="0"
       apply_no_weight="true"
       apply_with_weight="true"
       only_selected="false" />
    <inkscape:path-effect
       effect="bspline"
       id="path-effect1353"
       is_visible="true"
       weight="33.333333"
       steps="2"
       helper_size="0"
       apply_no_weight="true"
       apply_with_weight="true"
       only_selected="false" />
    <marker
       inkscape:stockid="Arrow1Lstart"
       orient="auto"
       refY="0.0"
       refX="0.0"
       id="Arrow1Lstart"
       style="overflow:visible"
       inkscape:isstock="true">
      <path
         id="path890"
         d="M 0.0,0.0 L 5.0,-5.0 L -12.5,0.0 L 5.0,5.0 L 0.0,0.0 z "
         style="fill-rule:evenodd;stroke:#000000;stroke-width:1pt;stroke-opacity:1;fill:#000000;fill-opacity:1"
         transform="scale(0.8) translate(12.5,0)" />
    </marker>
    <marker
       inkscape:stockid="Arrow1Lend"
       orient="auto"
       refY="0.0"
       refX="0.0"
       id="marker1174"
       style="overflow:visible;"
       inkscape:isstock="true">
      <path
         id="path1172"
         d="M 0.0,0.0 L 5.0,-5.0 L -12.5,0.0 L 5.0,5.0 L 0.0,0.0 z "
         style="fill-rule:evenodd;stroke:#000000;stroke-width:1pt;stroke-opacity:1;fill:#000000;fill-opacity:1"
         transform="scale(0.8) rotate(180) translate(12.5,0)" />
    </marker>
    <marker
       inkscape:stockid="Arrow1Lend"
       orient="auto"
       refY="0.0"
       refX="0.0"
       id="Arrow1Lend"
       style="overflow:visible;"
       inkscape:isstock="true">
      <path
         id="path893"
         d="M 0.0,0.0 L 5.0,-5.0 L -12.5,0.0 L 5.0,5.0 L 0.0,0.0 z "
         style="fill-rule:evenodd;stroke:#000000;stroke-width:1pt;stroke-opacity:1;fill:#000000;fill-opacity:1"
         transform="scale(0.8) rotate(180) translate(12.5,0)" />
    </marker>
    <inkscape:path-effect
       effect="bspline"
       id="path-effect874"
       is_visible="true"
       weight="33.333333"
       steps="2"
       helper_size="0"
       apply_no_weight="true"
       apply_with_weight="true"
       only_selected="false" />
    <inkscape:path-effect
       effect="bspline"
       id="path-effect870"
       is_visible="true"
       weight="33.333333"
       steps="2"
       helper_size="0"
       apply_no_weight="true"
       apply_with_weight="true"
       only_selected="false" />
    <inkscape:path-effect
       effect="bspline"
       id="path-effect834"
       is_visible="true"
       weight="33.333333"
       steps="2"
       helper_size="0"
       apply_no_weight="true"
       apply_with_weight="true"
       only_selected="false" />
    <inkscape:path-effect
       effect="bspline"
       id="path-effect830"
       is_visible="true"
       weight="33.333333"
       steps="2"
       helper_size="0"
       apply_no_weight="true"
       apply_with_weight="true"
       only_selected="false" />
    <inkscape:path-effect
       effect="bspline"
       id="path-effect1361-3"
       is_visible="true"
       weight="33.333333"
       steps="2"
       helper_size="0"
       apply_no_weight="true"
       apply_with_weight="true"
       only_selected="false" />
  </defs>
  <sodipodi:namedview
     id="base"
     pagecolor="#ffffff"
     bordercolor="#666666"
     borderopacity="1.0"
     inkscape:pageopacity="0.0"
     inkscape:pageshadow="2"
     inkscape:zoom="0.99437388"
     inkscape:cx="519.60023"
     inkscape:cy="182.72055"
     inkscape:document-units="mm"
     inkscape:current-layer="layer1"
     showgrid="false"
     showborder="true"
     width="200mm"
     showguides="true"
     inkscape:guide-bbox="true"
     inkscape:window-width="1920"
     inkscape:window-height="1050"
     inkscape:window-x="0"
     inkscape:window-y="30"
     inkscape:window-maximized="1">
    <inkscape:grid
       type="xygrid"
       id="grid815"
       units="mm"
       spacingx="10"
       spacingy="10"
       empspacing="4"
       dotted="false" />
  </sodipodi:namedview>
  <metadata
     id="metadata5">
    <rdf:RDF>
      <cc:Work
         rdf:about="">
        <dc:format>image/svg+xml</dc:format>
        <dc:type
           rdf:resource="http://purl.org/dc/dcmitype/StillImage" />
        <dc:title></dc:title>
      </cc:Work>
    </rdf:RDF>
  </metadata>
  <g
     inkscape:label="Layer 1"
     inkscape:groupmode="layer"
     id="layer1"
     transform="translate(0,-177)">
    <ellipse
       style="opacity:1;fill:none;fill-opacity:1;fill-rule:evenodd;stroke:#000000;stroke-width:0.46499997;stroke-miterlimit:4;stroke-dasharray:none;stroke-dashoffset:0;stroke-opacity:1;marker-start:none;marker-end:none"
       id="path816"
       cx="112.55198"
       cy="245.6465"
       rx="74.502495"
       ry="32.4618" />
    <ellipse
       style="opacity:1;fill:none;fill-opacity:1;fill-rule:evenodd;stroke:#000000;stroke-width:1.75748026;stroke-miterlimit:4;stroke-dasharray:none;stroke-dashoffset:0;stroke-opacity:1;marker-start:none;marker-end:none"
       id="path826"
       cx="0"
       cy="0"
       transform="matrix(0.26458333,0,0,0.26458333,0,177)"
       r="0" />
    <path
       style="fill:none;stroke:#000000;stroke-width:0.26506703;stroke-linecap:butt;stroke-linejoin:miter;stroke-miterlimit:4;stroke-dasharray:0.79520108, 0.79520108000000000;stroke-dashoffset:0;stroke-opacity:1;marker-end:url(#Arrow1Lend)"
       d="m 37.251245,245.38041 c 0,0 149.537145,0 149.537145,0"
       id="path828"
       inkscape:connector-curvature="0"
       inkscape:path-effect="#path-effect830"
       inkscape:original-d="M 37.251245,245.38041 H 186.78839"
       transform="matrix(1.5218929,0,0,1,-50.387328,0)" />
    <path
       style="fill:none;stroke:#000000;stroke-width:0.26499999;stroke-linecap:butt;stroke-linejoin:miter;stroke-miterlimit:4;stroke-dasharray:0.79499996, 0.79499995999999984;stroke-dashoffset:0;stroke-opacity:1;marker-start:url(#Arrow1Lstart)"
       d="m 111.22158,212.91861 c 0,0 0,65.18968 0,65.18968"
       id="path832"
       inkscape:connector-curvature="0"
       inkscape:path-effect="#path-effect834"
       inkscape:original-d="m 111.22158,212.91861 v 65.18968"
       transform="matrix(1,0,0,1.5836735,0,-149.2865)" />
    <ellipse
       style="opacity:1;fill:#000000;fill-opacity:1;fill-rule:evenodd;stroke:#000000;stroke-width:0.26499999;stroke-miterlimit:4;stroke-dasharray:0.79499995, 0.79499995000000001;stroke-dashoffset:0;stroke-opacity:1;marker-start:none;marker-end:none"
       id="path836"
       cx="77.1633"
       cy="245.51346"
       rx="2.6608033"
       ry="2.261683" />
    <ellipse
       style="opacity:1;fill:#000000;fill-opacity:1;fill-rule:evenodd;stroke:#000000;stroke-width:0.26499999;stroke-miterlimit:4;stroke-dasharray:0.79499995, 0.79499995000000001;stroke-dashoffset:0;stroke-opacity:1;marker-start:none;marker-end:none"
       id="path838"
       cx="147.27545"
       cy="245.11433"
       rx="2.261683"
       ry="2.6608033" />
    <text
       id="text842"
       xml:space="preserve"
       style="font-size:2.64583325px;font-family:monospace;-inkscape-font-specification:'monospace, Normal';fill:#000000;fill-opacity:1;stroke:none;stroke-width:0.26458332"
       y="254.58809"
       x="72.070801"><tspan
         id="tspan840"
         sodipodi:role="line"
         x="72.070801"
         y="254.58809"
         style="stroke-width:0.26458332">$F_1$</tspan></text>
    <text
       id="text856"
       xml:space="preserve"
       style="font-size:2.64583325px;font-family:monospace;-inkscape-font-specification:'monospace, Normal';fill:#000000;fill-opacity:1;stroke:none;stroke-width:0.26458332"
       y="254.05592"
       x="145.24289"><tspan
         id="tspan854"
         sodipodi:role="line"
         x="145.24289"
         y="254.05592"
         style="stroke-width:0.26458332">$F_2$</tspan></text>
    <path
       style="fill:none;stroke:#000000;stroke-width:0.26458332px;stroke-linecap:butt;stroke-linejoin:miter;stroke-opacity:1"
       d="m 77.695456,245.11434 c 0,0 61.464554,-30.33316 61.464554,-30.33316"
       id="path868"
       inkscape:connector-curvature="0"
       inkscape:path-effect="#path-effect870"
       inkscape:original-d="M 77.695456,245.11434 139.16001,214.78118" />
    <path
       style="fill:none;stroke:#000000;stroke-width:0.26458332px;stroke-linecap:butt;stroke-linejoin:miter;stroke-opacity:1"
       d="m 147.14242,245.11434 c 0,0 -7.98241,-30.33316 -7.98241,-30.33316"
       id="path872"
       inkscape:connector-curvature="0"
       inkscape:path-effect="#path-effect874"
       inkscape:original-d="m 147.14242,245.11434 -7.98241,-30.33316" />
    <text
       id="text878"
       xml:space="preserve"
       style="font-size:2.64583325px;font-family:monospace;-inkscape-font-specification:'monospace, Normal';fill:#000000;fill-opacity:1;stroke:none;stroke-width:0.26458332"
       y="208.93983"
       x="139.91772"><tspan
         id="tspan876"
         sodipodi:role="line"
         x="139.91772"
         y="208.93983"
         style="stroke-width:0.26458332">$P$</tspan></text>
    <text
       id="text1234"
       xml:space="preserve"
       style="font-size:2.64583325px;font-family:monospace;-inkscape-font-specification:'monospace, Normal';fill:#000000;fill-opacity:1;stroke:none;stroke-width:0.26458332"
       y="251.77878"
       x="228.78856"><tspan
         id="tspan1232"
         sodipodi:role="line"
         x="228.78856"
         y="251.77878"
         style="stroke-width:0.26458332">$x$</tspan></text>
    <text
       id="text1248"
       xml:space="preserve"
       style="font-size:2.64583325px;font-family:monospace;-inkscape-font-specification:'monospace, Normal';fill:#000000;fill-opacity:1;stroke:none;stroke-width:0.26458332"
       y="194.49075"
       x="98.941353"><tspan
         id="tspan1246"
         sodipodi:role="line"
         x="98.941353"
         y="194.49075"
         style="stroke-width:0.26458332">$y$</tspan></text>
    <path
       style="fill:none;stroke:#000000;stroke-width:0.26458332px;stroke-linecap:butt;stroke-linejoin:miter;stroke-opacity:1"
       d="m 175.08086,276.24573 c 0,0.88429 0,1.77122 0.0456,2.21601 0.0456,0.4448 0.13438,0.4448 0.1774,0.4878 0.043,0.043 0.043,0.13174 0.0887,0.17741 0.0456,0.0457 0.13438,0.0457 0.1774,0.0887 0.043,0.043 0.043,0.13174 0.31043,0.17741 0.2674,0.0457 0.79956,0.0457 1.06432,0.0887 0.26476,0.043 0.26476,0.13174 0.35397,0.22202 0.0892,0.0903 0.26662,0.17898 0.35479,0.26611 0.0882,0.0871 0.0882,0.17577 0.31121,0.22144 0.22306,0.0457 0.66653,0.0457 2.12997,0.0457 1.46344,0 3.94686,0 5.27648,0.0446 1.32961,0.0446 1.50698,0.1333 1.68516,0.17738 0.17818,0.0441 0.35557,0.0441 0.44294,0.0871 0.0874,0.043 0.0874,0.13174 0.17739,0.17741 0.09,0.0457 0.2674,0.0457 0.35477,0.0887 0.0874,0.0431 0.0874,0.13169 0.39912,0.17736 0.31175,0.0457 0.93261,0.0457 1.24171,0.0887 0.30911,0.043 0.30911,0.13169 0.39913,0.17736 0.09,0.0457 0.2674,0.0457 0.35477,0.0887 0.0874,0.043 0.0874,0.13169 0.13302,0.17736 0.0456,0.0457 0.13438,0.0457 0.22176,0.09 0.0874,0.0444 0.17605,0.13303 0.31042,0.17738 0.13436,0.0444 0.31175,0.0444 0.39912,0.0874 0.0874,0.043 0.0874,0.13169 0.17739,0.17736 0.09,0.0457 0.2674,0.0457 0.35477,0.0887 0.0874,0.043 0.0874,0.13169 0.13302,0.17736 0.0456,0.0457 0.13438,0.0457 0.1774,0.0887 0.043,0.043 0.043,0.13169 0.0887,0.17736 0.0456,0.0457 0.13438,0.0457 0.1774,0.0887 0.043,0.043 0.043,0.13169 0.17739,0.17736 0.13437,0.0457 0.40044,0.0457 0.53216,0.0887 0.13172,0.043 0.13172,0.13169 0.17737,0.17736 0.0456,0.0457 0.13438,0.0457 0.1774,0.0887 0.043,0.043 0.043,0.13169 0.0874,0.22171 0.0443,0.09 0.13303,0.1787 0.17738,0.2661 0.0443,0.0874 0.0443,0.17604 0.09,0.22171 0.0456,0.0457 0.13438,0.0457 0.1774,0.17739 0.043,0.13172 0.043,0.3978 0.0887,0.53216 0.0456,0.13436 0.13438,0.13436 0.1774,0.26608 0.043,0.13172 0.043,0.3978 0.0871,0.6644 0.0441,0.26661 0.13278,0.5327 0.22253,0.57626 0.0897,0.0436 0.17844,-0.13384 0.26687,-0.35557 0.0884,-0.22173 0.17712,-0.48782 0.31122,-0.66441 0.13409,-0.1766 0.31149,-0.26529 0.39859,-0.3545 0.0871,-0.0892 0.0871,-0.17793 0.13276,-0.22096 0.0456,-0.043 0.13439,-0.043 0.17741,-0.13304 0.043,-0.09 0.043,-0.2674 0.043,-0.48913 0,-0.22173 0,-0.48781 0.0456,-0.61953 0.0456,-0.13172 0.13439,-0.13172 0.17741,-0.26608 0.043,-0.13436 0.043,-0.40044 0.0887,-0.53216 0.0457,-0.13172 0.13439,-0.13172 0.17741,-0.17737 0.043,-0.0457 0.043,-0.13438 0.1333,-0.22254 0.0903,-0.0882 0.26767,-0.17686 0.35477,-0.26607 0.0871,-0.0892 0.0871,-0.17793 0.13276,-0.22096 0.0456,-0.043 0.13439,-0.043 0.26743,-0.13304 0.13304,-0.09 0.31042,-0.2674 0.44345,-0.35477 0.13302,-0.0874 0.22175,-0.0874 0.26477,-0.13302 0.043,-0.0457 0.043,-0.13438 0.26608,-0.17741 0.22306,-0.043 0.66653,-0.043 0.93259,-0.0887 0.26606,-0.0457 0.35479,-0.13439 0.84261,-0.17741 0.48781,-0.043 1.37474,-0.043 2.08429,-0.043 0.70955,0 1.24171,0 1.50646,-0.0456 0.26476,-0.0457 0.26476,-0.13438 0.35478,-0.17741 0.09,-0.043 0.2674,-0.043 0.40042,-0.0887 0.13302,-0.0456 0.22175,-0.13439 0.3548,-0.17741 0.13304,-0.043 0.31042,-0.043 0.39779,-0.0887 0.0874,-0.0456 0.0874,-0.13439 0.13302,-0.17741 0.0456,-0.043 0.13439,-0.043 0.44481,-0.043 0.31043,0 0.84259,0 1.153,-0.0457 0.31041,-0.0457 0.39914,-0.13439 0.53218,-0.17741 0.13304,-0.043 0.31043,-0.043 0.44345,-0.0887 0.13302,-0.0457 0.22175,-0.13439 0.35479,-0.17741 0.13304,-0.043 0.31043,-0.043 0.3978,-0.0887 0.0874,-0.0456 0.0874,-0.13439 0.17738,-0.17741 0.09,-0.043 0.26741,-0.043 0.35478,-0.0887 0.0874,-0.0456 0.0874,-0.13439 0.17738,-0.17741 0.09,-0.043 0.26741,-0.043 0.40043,-0.0887 0.13302,-0.0457 0.22175,-0.13439 0.31043,-0.17741 0.0887,-0.043 0.1774,-0.043 0.22042,-0.0887 0.043,-0.0457 0.043,-0.13439 0.0887,-0.17742 0.0457,-0.043 0.13438,-0.043 0.1774,-0.0887 0.043,-0.0456 0.043,-0.13438 0.13304,-0.17741 0.09,-0.043 0.26741,-0.043 0.39992,-0.13329 0.1325,-0.0903 0.2212,-0.26767 0.35503,-0.39992 0.13382,-0.13224 0.31123,-0.22094 0.39833,-0.31015 0.0871,-0.0892 0.0871,-0.17793 0.13276,-0.22095 0.0456,-0.043 0.13439,-0.043 0.17741,-0.0887 0.043,-0.0456 0.043,-0.13438 0.0887,-0.1774 0.0456,-0.043 0.13438,-0.043 0.1774,-0.13304 0.043,-0.09 0.043,-0.26741 0.0887,-0.35478 0.0456,-0.0874 0.13439,-0.0874 0.17741,-0.13302 0.043,-0.0457 0.043,-0.13438 0.0887,-0.22305 0.0456,-0.0887 0.13438,-0.17741 0.17741,-0.31045 0.043,-0.13304 0.043,-0.31043 0.0887,-0.44345 0.0456,-0.13302 0.13439,-0.22175 0.17741,-0.57653 0.043,-0.35477 0.043,-0.97562 0.0887,-1.28472 0.0456,-0.30911 0.13438,-0.30911 0.22043,-0.30911"
       id="path1359"
       inkscape:connector-curvature="0"
       inkscape:path-effect="#path-effect1361"
       inkscape:original-d="m 175.08086,276.24573 c 0.003,0.88429 0.003,1.77122 0,2.66081 0.0913,-0.003 0.18003,-0.003 0.26608,0 0.003,0.086 0.003,0.17474 0,0.26608 0.0913,-0.003 0.18003,-0.003 0.26608,0 0.003,0.086 0.003,0.17474 0,0.26608 0.5348,-0.003 1.06696,-0.003 1.59648,0 0.003,0.086 0.003,0.17474 0,0.26608 0.18003,0.086 0.35742,0.17474 0.53216,0.26608 0.003,0.0861 0.003,0.17474 0,0.26608 0.44611,-0.003 0.88958,-0.003 1.3304,0 2.48606,-0.003 4.96948,-0.003 7.45025,0 0.18003,0.0861 0.35742,0.17474 0.53216,0.26608 0.18003,-0.003 0.35742,-0.003 0.53216,0 0.003,0.086 0.003,0.17474 0,0.26608 0.18004,-0.003 0.35742,-0.003 0.53216,0 0.003,0.0861 0.003,0.17474 0,0.26608 0.6235,-0.003 1.24436,-0.003 1.86257,0 0.003,0.0861 0.003,0.17474 0,0.26608 0.18003,-0.003 0.35742,-0.003 0.53216,0 0.003,0.0861 0.003,0.17474 0,0.26608 0.0913,-0.003 0.18003,-0.003 0.26608,0 0.0913,0.0861 0.18003,0.17474 0.26608,0.26608 0.18003,-0.003 0.35742,-0.003 0.53216,0 0.003,0.0861 0.003,0.17474 0,0.26608 0.18003,-0.003 0.35742,-0.003 0.53216,0 0.003,0.0861 0.003,0.17474 0,0.26608 0.0913,-0.003 0.18003,-0.003 0.26608,0 0.003,0.0861 0.003,0.17474 0,0.26608 0.0913,-0.003 0.18003,-0.003 0.26608,0 0.003,0.0861 0.003,0.17474 0,0.26608 0.26873,-0.003 0.5348,-0.003 0.79824,0 0.003,0.0861 0.003,0.17474 0,0.26608 0.0913,-0.003 0.18003,-0.003 0.26608,0 0.003,0.0861 0.003,0.17474 0,0.26608 0.0913,0.0861 0.18003,0.17474 0.26608,0.26608 0.003,0.0861 0.003,0.17474 0,0.26608 0.0913,-0.003 0.18003,-0.003 0.26608,0 0.003,0.26344 0.003,0.52952 0,0.79824 0.0913,-0.003 0.18003,-0.003 0.26608,0 0.003,0.26344 0.003,0.52952 0,0.79825 0.0913,0.26343 0.18003,0.52951 0.26608,0.79824 0.0913,-0.18004 0.18003,-0.35742 0.26608,-0.53217 0.0913,-0.26872 0.18004,-0.5348 0.26608,-0.79824 0.18004,-0.0913 0.35742,-0.18003 0.53216,-0.26608 0.003,-0.0913 0.003,-0.18003 0,-0.26608 0.0913,-0.003 0.18004,-0.003 0.26608,0 0.003,-0.18003 0.003,-0.35742 0,-0.53216 0.003,-0.26872 0.003,-0.5348 0,-0.79824 0.0913,-0.003 0.18004,-0.003 0.26608,0 0.003,-0.26872 0.003,-0.5348 0,-0.79824 0.0913,-0.003 0.18004,-0.003 0.26608,0 0.003,-0.0913 0.003,-0.18003 0,-0.26608 0.18004,-0.0913 0.35742,-0.18003 0.53216,-0.26608 0.003,-0.0913 0.003,-0.18003 0,-0.26608 0.0913,-0.003 0.18004,-0.003 0.26608,0 0.18004,-0.18003 0.35742,-0.35742 0.53217,-0.53216 0.0913,-0.003 0.18003,-0.003 0.26607,0 0.003,-0.0913 0.003,-0.18003 0,-0.26608 0.44612,-0.003 0.88959,-0.003 1.33041,0 0.0913,-0.0913 0.18003,-0.18004 0.26608,-0.26608 0.88958,-0.003 1.77651,-0.003 2.6608,0 0.53481,-0.003 1.06697,-0.003 1.59648,0 0.003,-0.0913 0.003,-0.18003 0,-0.26608 0.18004,-0.003 0.35742,-0.003 0.53216,0 0.0913,-0.0913 0.18004,-0.18003 0.26608,-0.26608 0.18004,-0.003 0.35742,-0.003 0.53216,0 0.003,-0.0913 0.003,-0.18004 0,-0.26608 0.0913,-0.003 0.18004,-0.003 0.26609,0 0.5348,-0.003 1.06696,-0.003 1.59648,0 0.0913,-0.0913 0.18003,-0.18004 0.26608,-0.26608 0.18003,-0.003 0.35742,-0.003 0.53216,0 0.0913,-0.0913 0.18003,-0.18004 0.26608,-0.26608 0.18003,-0.003 0.35742,-0.003 0.53216,0 0.003,-0.0913 0.003,-0.18004 0,-0.26608 0.18003,-0.003 0.35742,-0.003 0.53216,0 0.003,-0.0913 0.003,-0.18004 0,-0.26608 0.18003,-0.003 0.35742,-0.003 0.53216,0 0.0913,-0.0913 0.18003,-0.18004 0.26608,-0.26608 0.0913,-0.003 0.18003,-0.003 0.26608,0 0.003,-0.0913 0.003,-0.18004 0,-0.26609 0.0913,-0.003 0.18003,-0.003 0.26608,0 0.003,-0.0913 0.003,-0.18003 0,-0.26608 0.18003,-0.003 0.35742,-0.003 0.53216,0 0.0913,-0.18003 0.18003,-0.35741 0.26608,-0.53216 0.18003,-0.0913 0.35742,-0.18003 0.53216,-0.26608 0.003,-0.0913 0.003,-0.18003 0,-0.26608 0.0913,-0.003 0.18004,-0.003 0.26608,0 0.003,-0.0913 0.003,-0.18003 0,-0.26608 0.0913,-0.003 0.18003,-0.003 0.26608,0 0.003,-0.18003 0.003,-0.35742 0,-0.53216 0.0913,-0.003 0.18004,-0.003 0.26608,0 0.003,-0.0913 0.003,-0.18003 0,-0.26608 0.0913,-0.0913 0.18004,-0.18003 0.26608,-0.26608 0.003,-0.18003 0.003,-0.35742 0,-0.53216 0.0913,-0.0913 0.18004,-0.18003 0.26609,-0.26608 0.003,-0.6235 0.003,-1.24435 0,-1.86256 0.0913,-0.003 0.18003,-0.003 0.26608,0"
       transform="matrix(1.9551928,0,0,0.99466267,-230.90681,-26.18077)" />
    <text
       id="text1371"
       xml:space="preserve"
       style="font-size:2.64583325px;font-family:monospace;-inkscape-font-specification:'monospace, Normal';fill:#000000;fill-opacity:1;stroke:none;stroke-width:0.26458332"
       y="263.22021"
       x="148.16621"><tspan
         id="tspan1369"
         sodipodi:role="line"
         x="148.16621"
         y="263.22021"
         style="stroke-width:0.26458332">$a$</tspan></text>
    <text
       id="text1385"
       xml:space="preserve"
       style="font-size:2.64583325px;font-family:monospace;-inkscape-font-specification:'monospace, Normal';fill:#000000;fill-opacity:1;stroke:none;stroke-width:0.26458332"
       y="232.62097"
       x="90.160706"><tspan
         id="tspan1383"
         sodipodi:role="line"
         x="90.160706"
         y="232.62097"
         style="stroke-width:0.26458332">$b$</tspan></text>
    <path
       style="fill:none;stroke:#000000;stroke-width:0.26458332px;stroke-linecap:butt;stroke-linejoin:miter;stroke-opacity:1"
       d="m 175.08086,276.24573 c 0,0.88429 0,1.77122 0.0456,2.21601 0.0456,0.4448 0.13438,0.4448 0.1774,0.4878 0.043,0.043 0.043,0.13174 0.0887,0.17741 0.0456,0.0457 0.13438,0.0457 0.1774,0.0887 0.043,0.043 0.043,0.13174 0.31043,0.17741 0.2674,0.0457 0.79956,0.0457 1.06432,0.0887 0.26476,0.043 0.26476,0.13174 0.35397,0.22202 0.0892,0.0903 0.26662,0.17898 0.35479,0.26611 0.0882,0.0871 0.0882,0.17577 0.31121,0.22144 0.22306,0.0457 0.66653,0.0457 2.12997,0.0457 1.46344,0 3.94686,0 5.27648,0.0446 1.32961,0.0446 1.50698,0.1333 1.68516,0.17738 0.17818,0.0441 0.35557,0.0441 0.44294,0.0871 0.0874,0.043 0.0874,0.13174 0.17739,0.17741 0.09,0.0457 0.2674,0.0457 0.35477,0.0887 0.0874,0.0431 0.0874,0.13169 0.39912,0.17736 0.31175,0.0457 0.93261,0.0457 1.24171,0.0887 0.30911,0.043 0.30911,0.13169 0.39913,0.17736 0.09,0.0457 0.2674,0.0457 0.35477,0.0887 0.0874,0.043 0.0874,0.13169 0.13302,0.17736 0.0456,0.0457 0.13438,0.0457 0.22176,0.09 0.0874,0.0444 0.17605,0.13303 0.31042,0.17738 0.13436,0.0444 0.31175,0.0444 0.39912,0.0874 0.0874,0.043 0.0874,0.13169 0.17739,0.17736 0.09,0.0457 0.2674,0.0457 0.35477,0.0887 0.0874,0.043 0.0874,0.13169 0.13302,0.17736 0.0456,0.0457 0.13438,0.0457 0.1774,0.0887 0.043,0.043 0.043,0.13169 0.0887,0.17736 0.0456,0.0457 0.13438,0.0457 0.1774,0.0887 0.043,0.043 0.043,0.13169 0.17739,0.17736 0.13437,0.0457 0.40044,0.0457 0.53216,0.0887 0.13172,0.043 0.13172,0.13169 0.17737,0.17736 0.0456,0.0457 0.13438,0.0457 0.1774,0.0887 0.043,0.043 0.043,0.13169 0.0874,0.22171 0.0443,0.09 0.13303,0.1787 0.17738,0.2661 0.0443,0.0874 0.0443,0.17604 0.09,0.22171 0.0456,0.0457 0.13438,0.0457 0.1774,0.17739 0.043,0.13172 0.043,0.3978 0.0887,0.53216 0.0456,0.13436 0.13438,0.13436 0.1774,0.26608 0.043,0.13172 0.043,0.3978 0.0871,0.6644 0.0441,0.26661 0.13278,0.5327 0.22253,0.57626 0.0897,0.0436 0.17844,-0.13384 0.26687,-0.35557 0.0884,-0.22173 0.17712,-0.48782 0.31122,-0.66441 0.13409,-0.1766 0.31149,-0.26529 0.39859,-0.3545 0.0871,-0.0892 0.0871,-0.17793 0.13276,-0.22096 0.0456,-0.043 0.13439,-0.043 0.17741,-0.13304 0.043,-0.09 0.043,-0.2674 0.043,-0.48913 0,-0.22173 0,-0.48781 0.0456,-0.61953 0.0456,-0.13172 0.13439,-0.13172 0.17741,-0.26608 0.043,-0.13436 0.043,-0.40044 0.0887,-0.53216 0.0457,-0.13172 0.13439,-0.13172 0.17741,-0.17737 0.043,-0.0457 0.043,-0.13438 0.1333,-0.22254 0.0903,-0.0882 0.26767,-0.17686 0.35477,-0.26607 0.0871,-0.0892 0.0871,-0.17793 0.13276,-0.22096 0.0456,-0.043 0.13439,-0.043 0.26743,-0.13304 0.13304,-0.09 0.31042,-0.2674 0.44345,-0.35477 0.13302,-0.0874 0.22175,-0.0874 0.26477,-0.13302 0.043,-0.0457 0.043,-0.13438 0.26608,-0.17741 0.22306,-0.043 0.66653,-0.043 0.93259,-0.0887 0.26606,-0.0457 0.35479,-0.13439 0.84261,-0.17741 0.48781,-0.043 1.37474,-0.043 2.08429,-0.043 0.70955,0 1.24171,0 1.50646,-0.0456 0.26476,-0.0457 0.26476,-0.13438 0.35478,-0.17741 0.09,-0.043 0.2674,-0.043 0.40042,-0.0887 0.13302,-0.0456 0.22175,-0.13439 0.3548,-0.17741 0.13304,-0.043 0.31042,-0.043 0.39779,-0.0887 0.0874,-0.0456 0.0874,-0.13439 0.13302,-0.17741 0.0456,-0.043 0.13439,-0.043 0.44481,-0.043 0.31043,0 0.84259,0 1.153,-0.0457 0.31041,-0.0457 0.39914,-0.13439 0.53218,-0.17741 0.13304,-0.043 0.31043,-0.043 0.44345,-0.0887 0.13302,-0.0457 0.22175,-0.13439 0.35479,-0.17741 0.13304,-0.043 0.31043,-0.043 0.3978,-0.0887 0.0874,-0.0456 0.0874,-0.13439 0.17738,-0.17741 0.09,-0.043 0.26741,-0.043 0.35478,-0.0887 0.0874,-0.0456 0.0874,-0.13439 0.17738,-0.17741 0.09,-0.043 0.26741,-0.043 0.40043,-0.0887 0.13302,-0.0457 0.22175,-0.13439 0.31043,-0.17741 0.0887,-0.043 0.1774,-0.043 0.22042,-0.0887 0.043,-0.0457 0.043,-0.13439 0.0887,-0.17742 0.0457,-0.043 0.13438,-0.043 0.1774,-0.0887 0.043,-0.0456 0.043,-0.13438 0.13304,-0.17741 0.09,-0.043 0.26741,-0.043 0.39992,-0.13329 0.1325,-0.0903 0.2212,-0.26767 0.35503,-0.39992 0.13382,-0.13224 0.31123,-0.22094 0.39833,-0.31015 0.0871,-0.0892 0.0871,-0.17793 0.13276,-0.22095 0.0456,-0.043 0.13439,-0.043 0.17741,-0.0887 0.043,-0.0456 0.043,-0.13438 0.0887,-0.1774 0.0456,-0.043 0.13438,-0.043 0.1774,-0.13304 0.043,-0.09 0.043,-0.26741 0.0887,-0.35478 0.0456,-0.0874 0.13439,-0.0874 0.17741,-0.13302 0.043,-0.0457 0.043,-0.13438 0.0887,-0.22305 0.0456,-0.0887 0.13438,-0.17741 0.17741,-0.31045 0.043,-0.13304 0.043,-0.31043 0.0887,-0.44345 0.0456,-0.13302 0.13439,-0.22175 0.17741,-0.57653 0.043,-0.35477 0.043,-0.97562 0.0887,-1.28472 0.0456,-0.30911 0.13438,-0.30911 0.22043,-0.30911"
       id="path1359-6"
       inkscape:connector-curvature="0"
       inkscape:path-effect="#path-effect1361-3"
       inkscape:original-d="m 175.08086,276.24573 c 0.003,0.88429 0.003,1.77122 0,2.66081 0.0913,-0.003 0.18003,-0.003 0.26608,0 0.003,0.086 0.003,0.17474 0,0.26608 0.0913,-0.003 0.18003,-0.003 0.26608,0 0.003,0.086 0.003,0.17474 0,0.26608 0.5348,-0.003 1.06696,-0.003 1.59648,0 0.003,0.086 0.003,0.17474 0,0.26608 0.18003,0.086 0.35742,0.17474 0.53216,0.26608 0.003,0.0861 0.003,0.17474 0,0.26608 0.44611,-0.003 0.88958,-0.003 1.3304,0 2.48606,-0.003 4.96948,-0.003 7.45025,0 0.18003,0.0861 0.35742,0.17474 0.53216,0.26608 0.18003,-0.003 0.35742,-0.003 0.53216,0 0.003,0.086 0.003,0.17474 0,0.26608 0.18004,-0.003 0.35742,-0.003 0.53216,0 0.003,0.0861 0.003,0.17474 0,0.26608 0.6235,-0.003 1.24436,-0.003 1.86257,0 0.003,0.0861 0.003,0.17474 0,0.26608 0.18003,-0.003 0.35742,-0.003 0.53216,0 0.003,0.0861 0.003,0.17474 0,0.26608 0.0913,-0.003 0.18003,-0.003 0.26608,0 0.0913,0.0861 0.18003,0.17474 0.26608,0.26608 0.18003,-0.003 0.35742,-0.003 0.53216,0 0.003,0.0861 0.003,0.17474 0,0.26608 0.18003,-0.003 0.35742,-0.003 0.53216,0 0.003,0.0861 0.003,0.17474 0,0.26608 0.0913,-0.003 0.18003,-0.003 0.26608,0 0.003,0.0861 0.003,0.17474 0,0.26608 0.0913,-0.003 0.18003,-0.003 0.26608,0 0.003,0.0861 0.003,0.17474 0,0.26608 0.26873,-0.003 0.5348,-0.003 0.79824,0 0.003,0.0861 0.003,0.17474 0,0.26608 0.0913,-0.003 0.18003,-0.003 0.26608,0 0.003,0.0861 0.003,0.17474 0,0.26608 0.0913,0.0861 0.18003,0.17474 0.26608,0.26608 0.003,0.0861 0.003,0.17474 0,0.26608 0.0913,-0.003 0.18003,-0.003 0.26608,0 0.003,0.26344 0.003,0.52952 0,0.79824 0.0913,-0.003 0.18003,-0.003 0.26608,0 0.003,0.26344 0.003,0.52952 0,0.79825 0.0913,0.26343 0.18003,0.52951 0.26608,0.79824 0.0913,-0.18004 0.18003,-0.35742 0.26608,-0.53217 0.0913,-0.26872 0.18004,-0.5348 0.26608,-0.79824 0.18004,-0.0913 0.35742,-0.18003 0.53216,-0.26608 0.003,-0.0913 0.003,-0.18003 0,-0.26608 0.0913,-0.003 0.18004,-0.003 0.26608,0 0.003,-0.18003 0.003,-0.35742 0,-0.53216 0.003,-0.26872 0.003,-0.5348 0,-0.79824 0.0913,-0.003 0.18004,-0.003 0.26608,0 0.003,-0.26872 0.003,-0.5348 0,-0.79824 0.0913,-0.003 0.18004,-0.003 0.26608,0 0.003,-0.0913 0.003,-0.18003 0,-0.26608 0.18004,-0.0913 0.35742,-0.18003 0.53216,-0.26608 0.003,-0.0913 0.003,-0.18003 0,-0.26608 0.0913,-0.003 0.18004,-0.003 0.26608,0 0.18004,-0.18003 0.35742,-0.35742 0.53217,-0.53216 0.0913,-0.003 0.18003,-0.003 0.26607,0 0.003,-0.0913 0.003,-0.18003 0,-0.26608 0.44612,-0.003 0.88959,-0.003 1.33041,0 0.0913,-0.0913 0.18003,-0.18004 0.26608,-0.26608 0.88958,-0.003 1.77651,-0.003 2.6608,0 0.53481,-0.003 1.06697,-0.003 1.59648,0 0.003,-0.0913 0.003,-0.18003 0,-0.26608 0.18004,-0.003 0.35742,-0.003 0.53216,0 0.0913,-0.0913 0.18004,-0.18003 0.26608,-0.26608 0.18004,-0.003 0.35742,-0.003 0.53216,0 0.003,-0.0913 0.003,-0.18004 0,-0.26608 0.0913,-0.003 0.18004,-0.003 0.26609,0 0.5348,-0.003 1.06696,-0.003 1.59648,0 0.0913,-0.0913 0.18003,-0.18004 0.26608,-0.26608 0.18003,-0.003 0.35742,-0.003 0.53216,0 0.0913,-0.0913 0.18003,-0.18004 0.26608,-0.26608 0.18003,-0.003 0.35742,-0.003 0.53216,0 0.003,-0.0913 0.003,-0.18004 0,-0.26608 0.18003,-0.003 0.35742,-0.003 0.53216,0 0.003,-0.0913 0.003,-0.18004 0,-0.26608 0.18003,-0.003 0.35742,-0.003 0.53216,0 0.0913,-0.0913 0.18003,-0.18004 0.26608,-0.26608 0.0913,-0.003 0.18003,-0.003 0.26608,0 0.003,-0.0913 0.003,-0.18004 0,-0.26609 0.0913,-0.003 0.18003,-0.003 0.26608,0 0.003,-0.0913 0.003,-0.18003 0,-0.26608 0.18003,-0.003 0.35742,-0.003 0.53216,0 0.0913,-0.18003 0.18003,-0.35741 0.26608,-0.53216 0.18003,-0.0913 0.35742,-0.18003 0.53216,-0.26608 0.003,-0.0913 0.003,-0.18003 0,-0.26608 0.0913,-0.003 0.18004,-0.003 0.26608,0 0.003,-0.0913 0.003,-0.18003 0,-0.26608 0.0913,-0.003 0.18003,-0.003 0.26608,0 0.003,-0.18003 0.003,-0.35742 0,-0.53216 0.0913,-0.003 0.18004,-0.003 0.26608,0 0.003,-0.0913 0.003,-0.18003 0,-0.26608 0.0913,-0.0913 0.18004,-0.18003 0.26608,-0.26608 0.003,-0.18003 0.003,-0.35742 0,-0.53216 0.0913,-0.0913 0.18004,-0.18003 0.26609,-0.26608 0.003,-0.6235 0.003,-1.24435 0,-1.86256 0.0913,-0.003 0.18003,-0.003 0.26608,0"
       transform="matrix(0,0.84024046,-1.0013166,0,384.55587,69.06266)" />
  </g>
</svg>
