<?xml version="1.0" encoding="UTF-8" standalone="no"?>
<!-- Created with Inkscape (http://www.inkscape.org/) -->

<svg
   xmlns:dc="http://purl.org/dc/elements/1.1/"
   xmlns:cc="http://creativecommons.org/ns#"
   xmlns:rdf="http://www.w3.org/1999/02/22-rdf-syntax-ns#"
   xmlns:svg="http://www.w3.org/2000/svg"
   xmlns="http://www.w3.org/2000/svg"
   xmlns:sodipodi="http://sodipodi.sourceforge.net/DTD/sodipodi-0.dtd"
   xmlns:inkscape="http://www.inkscape.org/namespaces/inkscape"
   width="240mm"
   height="120mm"
   viewBox="0 0 240 120"
   version="1.1"
   id="svg8"
   inkscape:version="0.92.5 (2060ec1f9f, 2020-04-08)"
   sodipodi:docname="drawing.svg">
  <defs
     id="defs2">
    <inkscape:path-effect
       effect="spiro"
       id="path-effect1621"
       is_visible="true" />
    <inkscape:path-effect
       effect="spiro"
       id="path-effect1617"
       is_visible="true" />
    <marker
       inkscape:stockid="Arrow1Lstart"
       orient="auto"
       refY="0.0"
       refX="0.0"
       id="Arrow1Lstart"
       style="overflow:visible"
       inkscape:isstock="true">
      <path
         id="path868"
         d="M 0.0,0.0 L 5.0,-5.0 L -12.5,0.0 L 5.0,5.0 L 0.0,0.0 z "
         style="fill-rule:evenodd;stroke:#000000;stroke-width:1pt;stroke-opacity:1;fill:#000000;fill-opacity:1"
         transform="scale(0.8) translate(12.5,0)" />
    </marker>
    <marker
       inkscape:stockid="Arrow1Lend"
       orient="auto"
       refY="0.0"
       refX="0.0"
       id="Arrow1Lend"
       style="overflow:visible;"
       inkscape:isstock="true">
      <path
         id="path871"
         d="M 0.0,0.0 L 5.0,-5.0 L -12.5,0.0 L 5.0,5.0 L 0.0,0.0 z "
         style="fill-rule:evenodd;stroke:#000000;stroke-width:1pt;stroke-opacity:1;fill:#000000;fill-opacity:1"
         transform="scale(0.8) rotate(180) translate(12.5,0)" />
    </marker>
    <inkscape:path-effect
       effect="spiro"
       id="path-effect866"
       is_visible="true" />
    <inkscape:path-effect
       effect="spiro"
       id="path-effect848"
       is_visible="true" />
    <inkscape:path-effect
       effect="spiro"
       id="path-effect826"
       is_visible="true" />
    <inkscape:path-effect
       effect="bspline"
       id="path-effect822"
       is_visible="true"
       weight="33.333333"
       steps="2"
       helper_size="0"
       apply_no_weight="true"
       apply_with_weight="true"
       only_selected="false" />
    <inkscape:path-effect
       effect="spiro"
       id="path-effect826-3"
       is_visible="true" />
    <marker
       inkscape:stockid="Arrow1Lstart"
       orient="auto"
       refY="0"
       refX="0"
       id="Arrow1Lstart-7"
       style="overflow:visible"
       inkscape:isstock="true">
      <path
         inkscape:connector-curvature="0"
         id="path868-5"
         d="M 0,0 5,-5 -12.5,0 5,5 Z"
         style="fill:#000000;fill-opacity:1;fill-rule:evenodd;stroke:#000000;stroke-width:1.00000003pt;stroke-opacity:1"
         transform="matrix(0.8,0,0,0.8,10,0)" />
    </marker>
    <marker
       inkscape:stockid="Arrow1Lend"
       orient="auto"
       refY="0"
       refX="0"
       id="Arrow1Lend-3"
       style="overflow:visible"
       inkscape:isstock="true">
      <path
         inkscape:connector-curvature="0"
         id="path871-5"
         d="M 0,0 5,-5 -12.5,0 5,5 Z"
         style="fill:#000000;fill-opacity:1;fill-rule:evenodd;stroke:#000000;stroke-width:1.00000003pt;stroke-opacity:1"
         transform="matrix(-0.8,0,0,-0.8,-10,0)" />
    </marker>
    <inkscape:path-effect
       effect="spiro"
       id="path-effect866-6"
       is_visible="true" />
  </defs>
  <sodipodi:namedview
     id="base"
     pagecolor="#ffffff"
     bordercolor="#666666"
     borderopacity="1.0"
     inkscape:pageopacity="0.0"
     inkscape:pageshadow="2"
     inkscape:zoom="1.9887477"
     inkscape:cx="495.57011"
     inkscape:cy="138.05956"
     inkscape:document-units="mm"
     inkscape:current-layer="layer1"
     showgrid="false"
     showborder="true"
     width="200mm"
     showguides="true"
     inkscape:guide-bbox="true"
     inkscape:window-width="1920"
     inkscape:window-height="1027"
     inkscape:window-x="0"
     inkscape:window-y="0"
     inkscape:window-maximized="1">
    <inkscape:grid
       type="xygrid"
       id="grid815"
       units="mm"
       spacingx="10"
       spacingy="10"
       empspacing="4"
       dotted="false" />
  </sodipodi:namedview>
  <metadata
     id="metadata5">
    <rdf:RDF>
      <cc:Work
         rdf:about="">
        <dc:format>image/svg+xml</dc:format>
        <dc:type
           rdf:resource="http://purl.org/dc/dcmitype/StillImage" />
        <dc:title></dc:title>
      </cc:Work>
    </rdf:RDF>
  </metadata>
  <g
     inkscape:label="Layer 1"
     inkscape:groupmode="layer"
     id="layer1"
     transform="translate(0,-177)">
    <path
       style="fill:none;stroke:#000000;stroke-width:0.26458332px;stroke-linecap:butt;stroke-linejoin:miter;stroke-opacity:1"
       d="m 60.666314,187.3749 v 97.11932"
       id="path816"
       inkscape:connector-curvature="0" />
    <path
       style="fill:none;stroke:#000000;stroke-width:0.26458332px;stroke-linecap:butt;stroke-linejoin:miter;stroke-opacity:1"
       d="M 24.21331,268.5294 H 214.19467"
       id="path818"
       inkscape:connector-curvature="0" />
    <path
       style="fill:none;stroke:#000000;stroke-width:0.26458332px;stroke-linecap:butt;stroke-linejoin:miter;stroke-opacity:1"
       d="m 28.736676,264.5382 c 23.149263,-0.79825 46.298252,-1.59649 57.872608,-12.46144 11.574357,-10.86495 11.574357,-31.79685 16.009106,-42.26255 4.43475,-10.46569 13.30421,-10.46569 17.73875,-0.26638 4.43453,10.19931 4.43453,30.59941 18.18232,41.68624 13.74778,11.08683 41.2424,12.86068 68.73712,14.63453"
       id="path820"
       inkscape:connector-curvature="0"
       inkscape:path-effect="#path-effect822"
       inkscape:original-d="m 28.736676,264.5382 c 23.149254,-0.7985 46.298243,-1.59674 69.446965,-2.39472 2.64e-4,-20.93167 2.64e-4,-41.86357 0,-62.79496 8.869499,-2.7e-4 17.738959,-2.7e-4 26.608029,0 2.7e-4,20.39862 2.7e-4,40.79872 0,61.19847 27.49559,1.77363 54.99021,3.54747 82.48491,5.32161"
       sodipodi:nodetypes="cccccc" />
    <path
       style="fill:none;stroke:#000000;stroke-width:0.26458332px;stroke-linecap:butt;stroke-linejoin:miter;stroke-opacity:1"
       d="m 130.91152,244.58217 v 23.68115"
       id="path824"
       inkscape:connector-curvature="0"
       inkscape:path-effect="#path-effect826"
       inkscape:original-d="m 130.91152,244.58217 c 2.7e-4,7.89346 2.7e-4,15.78717 0,23.68115" />
    <path
       transform="translate(-38.315564,-0.13303596)"
       style="fill:none;stroke:#000000;stroke-width:0.26458332px;stroke-linecap:butt;stroke-linejoin:miter;stroke-opacity:1"
       d="m 130.91152,244.58217 v 23.68115"
       id="path824-6"
       inkscape:connector-curvature="0"
       inkscape:path-effect="#path-effect826-3"
       inkscape:original-d="m 130.91152,244.58217 c 2.7e-4,7.89346 2.7e-4,15.78717 0,23.68115" />
    <path
       style="fill:none;stroke:#000000;stroke-width:0.26458332px;stroke-linecap:butt;stroke-linejoin:miter;stroke-opacity:1"
       d="m 110.15726,202.00932 v 66.78616"
       id="path846"
       inkscape:connector-curvature="0"
       inkscape:path-effect="#path-effect848"
       inkscape:original-d="m 110.15726,202.00932 c 2.6e-4,22.26179 2.6e-4,44.52385 0,66.78616"
       transform="translate(1.3304017)" />
    <text
       id="text852"
       xml:space="preserve"
       style="font-size:2.64583325px;font-family:monospace;-inkscape-font-specification:'monospace, Normal';fill:#000000;fill-opacity:1;stroke:none;stroke-width:0.26458332"
       y="273.4798"
       x="105.60403"><tspan
         id="tspan850"
         sodipodi:role="line"
         x="105.60403"
         y="273.4798"
         style="stroke-width:0.26458332">$E_{\xi}$</tspan></text>
    <path
       style="fill:none;stroke:#000000;stroke-width:0.265;stroke-linecap:butt;stroke-linejoin:miter;stroke-opacity:1;stroke-miterlimit:4;stroke-dasharray:none;marker-end:url(#Arrow1Lend);marker-start:url(#Arrow1Lstart)"
       d="M 92.862036,255.22539 H 112.01982"
       id="path864"
       inkscape:connector-curvature="0"
       inkscape:path-effect="#path-effect866"
       inkscape:original-d="m 92.862036,255.22539 c 6.386193,-2.7e-4 12.772124,-2.7e-4 19.157784,0" />
    <text
       id="text1184"
       xml:space="preserve"
       style="font-size:2.64583325px;font-family:monospace;-inkscape-font-specification:'monospace, Normal';fill:#000000;fill-opacity:1;stroke:none;stroke-width:0.26458332"
       y="249.56035"
       x="96.023361"><tspan
         sodipodi:role="line"
         x="96.023361"
         y="249.56035"
         style="stroke-width:0.26458332"
         id="tspan906">$\sigma$</tspan></text>
    <path
       transform="translate(19.157784)"
       style="fill:none;stroke:#000000;stroke-width:0.26499999;stroke-linecap:butt;stroke-linejoin:miter;stroke-miterlimit:4;stroke-dasharray:none;stroke-opacity:1;marker-start:url(#Arrow1Lstart-7);marker-end:url(#Arrow1Lend-3)"
       d="M 92.862036,255.22539 H 112.01982"
       id="path864-2"
       inkscape:connector-curvature="0"
       inkscape:path-effect="#path-effect866-6"
       inkscape:original-d="m 92.862036,255.22539 c 6.386193,-2.7e-4 12.772124,-2.7e-4 19.157784,0" />
    <text
       id="text1184-9"
       xml:space="preserve"
       style="font-size:2.64583325px;font-family:monospace;-inkscape-font-specification:'monospace, Normal';fill:#000000;fill-opacity:1;stroke:none;stroke-width:0.26458332"
       y="249.56035"
       x="115.18114"><tspan
         id="tspan1182-1"
         sodipodi:role="line"
         x="115.18114"
         y="249.56035"
         style="stroke-width:0.26458332">$\sigma$</tspan></text>
    <path
       style="fill:none;stroke:#000000;stroke-width:0.26458332px;stroke-linecap:butt;stroke-linejoin:miter;stroke-opacity:1"
       d="m 160.44644,260.81307 v 7.71633"
       id="path1504"
       inkscape:connector-curvature="0" />
    <path
       style="fill:none;stroke:#000000;stroke-width:0.26458332px;stroke-linecap:butt;stroke-linejoin:miter;stroke-opacity:1"
       d="m 72.373849,259.48267 v 9.57889"
       id="path1506"
       inkscape:connector-curvature="0" />
    <text
       id="text1510"
       xml:space="preserve"
       style="font-size:2.64583325px;font-family:monospace;-inkscape-font-specification:'monospace, Normal';fill:#000000;fill-opacity:1;stroke:none;stroke-width:0.26458332"
       y="273.50757"
       x="65.159821"><tspan
         id="tspan1508"
         sodipodi:role="line"
         x="65.159821"
         y="273.50757"
         style="stroke-width:0.26458332">$a\sigma$</tspan></text>
    <text
       id="text1510-2"
       xml:space="preserve"
       style="font-size:2.64583325px;font-family:monospace;-inkscape-font-specification:'monospace, Normal';fill:#000000;fill-opacity:1;stroke:none;stroke-width:0.26458332"
       y="273.50757"
       x="153.76457"><tspan
         id="tspan1508-7"
         sodipodi:role="line"
         x="153.76457"
         y="273.50757"
         style="stroke-width:0.26458332">$a\sigma$</tspan></text>
    <text
       id="text1542"
       xml:space="preserve"
       style="font-size:2.64583325px;font-family:monospace;-inkscape-font-specification:'monospace, Normal';fill:#000000;fill-opacity:1;stroke:none;stroke-width:0.26458332"
       y="249.62881"
       x="36.433811"><tspan
         id="tspan1540"
         sodipodi:role="line"
         x="36.433811"
         y="249.62881"
         style="stroke-width:0.26458332">$\frac{1}{a^2}$</tspan></text>
    <path
       style="fill:none;stroke:#ff0000;stroke-width:0.26458332px;stroke-linecap:butt;stroke-linejoin:miter;stroke-opacity:1"
       d="m 71.684085,260.12315 c -0.807672,2.21951 -1.49881,4.48142 -2.069618,6.7733 -0.0672,0.26981 -0.133039,0.54101 -0.235185,0.79962 -0.06696,0.16953 -0.152918,0.33767 -0.291451,0.45613 -0.06927,0.0592 -0.151144,0.1048 -0.239788,0.12597 -0.08864,0.0212 -0.184144,0.0171 -0.268385,-0.0177 -0.08169,-0.0337 -0.150378,-0.0952 -0.200039,-0.16827 -0.04966,-0.0731 -0.08104,-0.15754 -0.09958,-0.24395 -0.03708,-0.17283 -0.02394,-0.35184 -0.02964,-0.52851 -0.02624,-0.81291 -0.446264,-1.55136 -0.752589,-2.30481 -0.369641,-0.90918 -0.582927,-1.88797 -0.564444,-2.86924 0.0026,-0.1371 0.0096,-0.27437 0.0015,-0.41125 -0.0082,-0.13689 -0.03215,-0.27444 -0.08885,-0.3993 -0.0567,-0.12485 -0.148271,-0.23673 -0.269265,-0.30126 -0.0605,-0.0323 -0.127754,-0.0523 -0.196215,-0.0561 -0.06846,-0.004 -0.138058,0.009 -0.19972,0.039 -0.06782,0.033 -0.124824,0.086 -0.167971,0.14789 -0.04315,0.0618 -0.0729,0.13232 -0.0935,0.20486 -0.04121,0.14509 -0.04641,0.29757 -0.06778,0.44687 -0.08451,0.59019 -0.418216,1.11533 -0.564443,1.69333 -0.119167,0.47104 -0.110707,0.96419 -0.08639,1.44945 0.02432,0.48527 0.06364,0.97339 0.0039,1.45558 -0.05977,0.48219 -0.228291,0.96631 -0.565828,1.3158 -0.168768,0.17475 -0.378078,0.31238 -0.609895,0.38504 -0.231818,0.0727 -0.486173,0.0786 -0.717299,0.004 -0.212463,-0.0688 -0.400367,-0.20346 -0.549217,-0.36994 -0.148849,-0.16648 -0.260086,-0.36403 -0.344482,-0.57079 -0.289246,-0.70861 -0.263822,-1.49944 -0.355304,-2.25932 -0.04574,-0.37995 -0.122885,-0.75992 -0.280677,-1.10856 -0.157792,-0.34865 -0.401415,-0.6661 -0.728086,-0.86544 -0.211171,-0.12886 -0.458846,-0.20641 -0.705552,-0.18814 -0.306328,0.0227 -0.591055,0.19377 -0.786103,0.43106 -0.195047,0.23729 -0.305818,0.5358 -0.353173,0.83929 -0.09471,0.60699 0.05256,1.22195 0.104467,1.83408 0.03864,0.45561 0.02078,0.93057 -0.17259,1.34491 -0.09669,0.20717 -0.237211,0.39575 -0.418276,0.53533 -0.181064,0.13958 -0.403608,0.22845 -0.632091,0.23641 -0.227035,0.008 -0.453122,-0.0639 -0.645718,-0.1844 -0.192597,-0.12048 -0.353029,-0.28791 -0.483166,-0.47411 -0.223638,-0.31999 -0.359442,-0.69334 -0.458863,-1.07086 -0.09942,-0.37752 -0.164821,-0.76329 -0.261886,-1.14142 -0.09707,-0.37814 -0.228025,-0.75277 -0.445639,-1.07689 -0.217614,-0.32411 -0.529506,-0.5961 -0.903231,-0.70896 -0.136787,-0.0413 -0.281123,-0.0609 -0.42333,-0.047 -0.24681,0.0242 -0.478102,0.15041 -0.649786,0.32936 -0.171684,0.17895 -0.286148,0.4079 -0.350223,0.64747 -0.128148,0.47915 -0.06005,0.98598 0.0042,1.47779 0.06424,0.4918 0.122419,1.00176 -0.0239,1.47566 -0.07316,0.23696 -0.198729,0.4607 -0.380364,0.62954 -0.181634,0.16885 -0.421596,0.27967 -0.669531,0.28497 -0.267124,0.006 -0.528638,-0.1112 -0.726204,-0.29108 -0.197567,-0.17987 -0.334912,-0.41872 -0.4243,-0.67051 -0.178776,-0.50358 -0.172587,-1.05133 -0.260601,-1.5784 -0.08143,-0.48765 -0.253562,-0.97548 -0.590128,-1.33764 -0.168283,-0.18108 -0.37626,-0.32738 -0.608974,-0.41076 -0.232715,-0.0834 -0.490391,-0.10208 -0.729406,-0.039 -0.2327,0.0614 -0.441919,0.19832 -0.607134,0.37333 -0.165216,0.175 -0.287994,0.38705 -0.377664,0.61039 -0.17934,0.44668 -0.22794,0.93282 -0.312128,1.40674 -0.08419,0.47392 -0.214112,0.95861 -0.522268,1.32838 -0.154077,0.18489 -0.351907,0.33648 -0.57842,0.41781 -0.226514,0.0813 -0.482244,0.0891 -0.706816,0.003 -0.147126,-0.0567 -0.27789,-0.15202 -0.384898,-0.26782 -0.107009,-0.1158 -0.190845,-0.25175 -0.256193,-0.39525 -0.130696,-0.28699 -0.187615,-0.60094 -0.251893,-0.90966 -0.06428,-0.30873 -0.139201,-0.62129 -0.300451,-0.89229 -0.08062,-0.1355 -0.182706,-0.25931 -0.307195,-0.35607 -0.12449,-0.0968 -0.271953,-0.16586 -0.427878,-0.18927 -0.108815,-0.0163 -0.219724,-0.0105 -0.329259,0 -0.632139,0.0604 -1.255595,0.27933 -1.75577,0.67058 -0.500175,0.39125 -0.86946,0.96056 -0.972364,1.58719 -0.02625,0.15988 -0.03707,0.32745 -0.115237,0.46937 -0.03908,0.071 -0.09548,0.13395 -0.167252,0.17152 -0.07177,0.0376 -0.159659,0.0476 -0.234914,0.0176 -0.05781,-0.023 -0.105199,-0.068 -0.138515,-0.12058 -0.03332,-0.0526 -0.05342,-0.11252 -0.06707,-0.17324 -0.02729,-0.12143 -0.03026,-0.24919 -0.07664,-0.36469 -0.05078,-0.12648 -0.150139,-0.22813 -0.260585,-0.30798 -0.110446,-0.0798 -0.233142,-0.1408 -0.350893,-0.20943 -0.484469,-0.28235 -0.880664,-0.69137 -1.327197,-1.03054 -0.223267,-0.16959 -0.461192,-0.32281 -0.720674,-0.429 -0.259482,-0.1062 -0.542074,-0.16419 -0.821374,-0.13971 -0.164398,0.0144 -0.327814,0.058 -0.470366,0.14111 -0.228892,0.1335 -0.390061,0.36024 -0.502313,0.60028 -0.112251,0.24003 -0.181921,0.49732 -0.272479,0.74635 -0.09056,0.24903 -0.205887,0.49567 -0.391639,0.68464 -0.09288,0.0945 -0.202843,0.17326 -0.325574,0.22317 -0.12273,0.0499 -0.258479,0.0702 -0.389468,0.0504 -0.114327,-0.0174 -0.223155,-0.065 -0.317517,-0.1318 -0.09436,-0.0668 -0.174551,-0.15258 -0.240577,-0.24752 -0.13205,-0.18987 -0.206693,-0.41322 -0.268484,-0.63609 -0.06179,-0.22287 -0.11288,-0.44999 -0.204735,-0.66224 -0.09185,-0.21225 -0.229564,-0.41235 -0.426827,-0.53308 -0.151909,-0.093 -0.332013,-0.13401 -0.510108,-0.13549 -0.178095,-0.001 -0.354784,0.0351 -0.524704,0.0885 -0.515282,0.16181 -0.979388,0.48273 -1.3127,0.9077 -0.333311,0.42497 -0.5344,0.95217 -0.56877,1.49117"
       id="path1615"
       inkscape:connector-curvature="0"
       inkscape:path-effect="#path-effect1617"
       inkscape:original-d="m 71.684085,260.12315 c -1.495911,0.60764 -1.345059,5.32418 -2.069618,6.7733 -0.06833,0.13665 -0.167105,0.73154 -0.235185,0.79962 -0.07807,0.0781 -0.655773,0.70829 -0.799624,0.56444 -0.171829,-0.17182 -0.265975,-0.68759 -0.329258,-0.94073 -0.188886,-0.75554 -0.504206,-1.55966 -0.752589,-2.30481 -0.307938,-0.92381 -0.254233,-1.93861 -0.564444,-2.86924 -0.06069,-0.18206 -0.444449,-1.43702 -0.752588,-1.12888 -0.191217,0.19121 -0.155364,0.62573 -0.329256,0.79962 -0.401336,0.40134 -0.420079,1.11587 -0.564443,1.69333 -0.360937,1.44375 -0.979927,3.61398 -1.975546,4.6096 -0.309102,0.30911 -0.816523,-0.78638 -0.893699,-0.94073 -0.713222,-1.42645 0.04798,-3.29195 -1.364067,-4.23332 -0.148561,-0.099 -0.521118,-0.23425 -0.705552,-0.18814 -0.748109,0.18703 -0.711382,2.45757 -1.034809,3.10443 -0.36364,0.72728 -0.678968,1.57266 -1.222957,2.11665 -0.35365,0.35365 -1.011915,-0.50255 -1.128884,-0.65851 -0.760897,-1.01453 -0.379169,-3.99813 -2.069619,-3.99813 -0.10687,0 -0.343733,-0.1001 -0.42333,-0.047 -0.730639,0.4871 -1.4795,4.54973 -2.069619,4.84479 -1.131744,0.56587 -1.124931,-2.11073 -1.411105,-2.53999 -0.226089,-0.33913 -1.466895,-2.0182 -1.928508,-1.78739 -1.703313,0.85165 -1.982653,3.76531 -3.10443,4.13924 -1.313617,0.43787 -1.345838,-2.42769 -1.928508,-3.01036 -0.03326,-0.0333 -0.277011,0 -0.329259,0 -1.362593,0 -1.908296,1.43793 -2.728134,2.25777 -0.08953,0.0895 -0.411226,0.7293 -0.517403,0.65851 -0.185418,-0.12361 -0.188622,-0.47132 -0.282224,-0.65851 -0.06909,-0.13818 -0.472823,-0.33254 -0.611478,-0.51741 -0.790022,-1.05336 -1.346208,-2.46955 -2.869245,-1.59925 -0.118287,0.0676 -0.381884,0.0526 -0.470366,0.14111 -0.584178,0.58418 -1.037254,2.0234 -1.881473,2.3048 -1.07724,0.35908 -1.073605,-1.82619 -1.45814,-2.21073 -0.07418,-0.0742 -0.924097,-0.047 -1.034812,-0.047 -1.150053,0 -1.339013,2.03724 -1.88147,2.39887" />
    <path
       style="fill:none;stroke:#ff0000;stroke-width:0.26458332px;stroke-linecap:butt;stroke-linejoin:miter;stroke-opacity:1"
       d="m 160.44644,260.81307 c 0.18717,0.0531 0.35471,0.17277 0.46564,0.3326 0.14438,0.20803 0.1888,0.47267 0.17096,0.72526 -0.0178,0.2526 -0.0932,0.49719 -0.17096,0.73819 -0.32767,1.01613 -0.71113,2.05481 -0.62098,3.11866 0.0451,0.53192 0.2149,1.06121 0.5399,1.48471 0.325,0.42349 0.81371,0.73233 1.34496,0.78475 0.22322,0.022 0.45077,-7e-4 0.6652,-0.0665 0.44506,-0.13658 0.82191,-0.45739 1.07008,-0.85128 0.24816,-0.39389 0.37369,-0.85682 0.40884,-1.32104 0.0703,-0.92844 -0.20674,-1.84256 -0.4146,-2.75016 -0.0557,-0.24299 -0.10676,-0.49325 -0.0712,-0.73999 0.0178,-0.12337 0.0577,-0.24454 0.12531,-0.34924 0.0676,-0.1047 0.16384,-0.19236 0.27852,-0.24118 0.12605,-0.0537 0.27479,-0.0575 0.39912,0 0.0897,0.0415 0.164,0.11301 0.21591,0.19715 0.0519,0.0841 0.0822,0.18053 0.0958,0.27845 0.0273,0.19583 -0.0103,0.39418 -0.0456,0.58873 -0.16916,0.93235 -0.28589,1.90687 -0.0192,2.81612 0.13336,0.45463 0.36443,0.88531 0.6995,1.22028 0.33507,0.33496 0.77765,0.56965 1.24875,0.62 0.24234,0.0259 0.49069,0.003 0.72166,-0.0747 0.23097,-0.0778 0.44407,-0.21125 0.60874,-0.39093 0.16936,-0.18479 0.28484,-0.41466 0.3561,-0.65497 0.0713,-0.24031 0.0998,-0.49149 0.10954,-0.74195 0.026,-0.66656 -0.0779,-1.34435 0.0665,-1.9956 0.0697,-0.31446 0.20028,-0.6212 0.41666,-0.85978 0.21639,-0.23858 0.52513,-0.40304 0.84722,-0.40411 0.27226,-9.1e-4 0.5388,0.115 0.74085,0.29748 0.20205,0.18248 0.34181,0.42794 0.41998,0.68873 0.15633,0.52159 0.072,1.08309 -0.0471,1.61443 -0.11905,0.53134 -0.27262,1.06469 -0.25123,1.60879 0.0107,0.27204 0.0665,0.54477 0.18698,0.78893 0.12047,0.24415 0.30814,0.45868 0.547,0.58933 0.28185,0.15416 0.63171,0.18251 0.93128,0.0665 0.22216,-0.086 0.41166,-0.24648 0.5502,-0.44029 0.13854,-0.19381 0.22786,-0.41995 0.27972,-0.65247 0.10372,-0.46504 0.0605,-0.9482 0.0394,-1.4242 -0.0211,-0.476 -0.0162,-0.96901 0.17388,-1.4059 0.0951,-0.21845 0.23689,-0.41903 0.42455,-0.56579 0.18766,-0.14676 0.42264,-0.23725 0.66085,-0.23427 0.23359,0.003 0.45726,0.0931 0.6652,0.19956 0.38924,0.19931 0.74784,0.46251 1.0388,0.78897 0.29096,0.32646 0.5131,0.71716 0.6242,1.14011 0.12613,0.48017 0.10772,0.9867 0.20111,1.47429 0.0467,0.24379 0.12248,0.48469 0.25202,0.69644 0.12954,0.21174 0.316,0.3935 0.54467,0.49007 0.15385,0.065 0.32326,0.0901 0.49004,0.0814 0.16678,-0.009 0.33099,-0.0505 0.4853,-0.11432 0.30862,-0.1277 0.5742,-0.34038 0.8207,-0.56575 0.17458,-0.15962 0.34384,-0.32937 0.46564,-0.53216 0.23416,-0.38987 0.27204,-0.862 0.32049,-1.3142 0.0242,-0.2261 0.0527,-0.45273 0.11317,-0.67194 0.0605,-0.2192 0.15427,-0.43198 0.29806,-0.60814 0.24733,-0.30303 0.63667,-0.47856 1.02774,-0.48673 0.39106,-0.008 0.77898,0.14496 1.07536,0.40023 0.29637,0.25527 0.50254,0.60804 0.60361,0.9859 0.10107,0.37787 0.0997,0.77965 0.0206,1.16272 -0.0457,0.22147 -0.11722,0.43989 -0.12282,0.66596 -0.003,0.11303 0.0114,0.22751 0.0524,0.33287 0.041,0.10536 0.11002,0.20133 0.20342,0.26505 0.10516,0.0717 0.23632,0.0993 0.36348,0.0934 0.12716,-0.006 0.25104,-0.0437 0.36824,-0.0934 0.42628,-0.18073 0.77036,-0.5178 1.03993,-0.89424 0.26957,-0.37645 0.47302,-0.79514 0.69155,-1.20334 0.21853,-0.4082 0.45685,-0.81248 0.7825,-1.14163 0.32564,-0.32915 0.74975,-0.58019 1.21114,-0.61895 0.34079,-0.0286 0.68741,0.0609 0.98252,0.23378 0.2951,0.17284 0.53944,0.42646 0.7192,0.7174 0.35952,0.58188 0.45649,1.29235 0.42693,1.9757 -0.006,0.1427 -0.0174,0.28659 0.005,0.42766 0.0112,0.0705 0.0308,0.14008 0.0626,0.20403 0.0318,0.0639 0.076,0.12226 0.132,0.16655 0.0904,0.0715 0.20749,0.10315 0.3227,0.10754 0.11522,0.004 0.22981,-0.0166 0.3425,-0.041 1.46986,-0.31818 2.79633,-1.25163 3.59208,-2.52776"
       id="path1619"
       inkscape:connector-curvature="0"
       inkscape:path-effect="#path-effect1621"
       inkscape:original-d="m 160.44644,260.81307 c 0.15521,0.11087 0.32082,0.20847 0.46564,0.3326 0.17512,0.15011 -0.0549,1.24402 0,1.46345 0.19121,0.76485 0.80095,5.15665 1.26388,5.38812 0.16992,0.085 0.58813,-0.028 0.6652,-0.0665 1.72949,-0.86474 0.66237,-3.31466 1.06432,-4.92248 0.0708,-0.28324 -0.0258,-1.33041 0.3326,-1.33041 0.0631,0 0.35895,-0.0402 0.39912,0 0.23288,0.23288 0.11453,0.83699 0.26609,1.06433 0.95162,1.42744 1.04658,3.77391 1.92908,4.6564 0.33822,0.33823 1.24325,-0.20418 1.3304,-0.46564 0.15047,-0.45141 0.25307,-0.97178 0.46564,-1.39692 0.27759,-0.55518 -0.19988,-1.46281 0.0665,-1.9956 0.0796,-0.15931 0.98157,-1.40504 1.26388,-1.26389 1.44066,0.72034 0.24863,4.91377 1.59648,5.58769 0.23967,0.11983 0.64519,0.0665 0.93128,0.0665 2.78548,0 1.4665,-4.06077 2.12865,-4.72292 0.19313,-0.19314 0.58347,0.11783 0.6652,0.19956 0.52662,0.52662 1.40983,1.16958 1.663,1.92908 0.24325,0.72974 0.48602,2.14902 0.9978,2.6608 0.43252,0.43252 1.63581,-0.35834 1.79604,-0.59868 0.12694,-0.19041 0.36263,-0.32613 0.46564,-0.53216 0.2368,-0.47358 0.20773,-2.59428 0.73172,-2.59428 1.07323,0 2.23448,1.07642 2.72733,2.06212 0.18887,0.37775 -0.16001,0.97084 0.13304,1.26388 0.0713,0.0713 0.6237,0 0.73172,0 3.12922,0 1.7474,-2.8693 3.72512,-3.85816 0.13545,-0.0677 1.9986,2.53674 2.12865,2.92688 0.0647,0.19396 0.0528,0.65146 0.19956,0.79824 0.13231,0.13232 0.48638,0.0218 0.6652,0.0665 1.91931,0.47983 2.49903,-2.16341 3.59208,-2.52776"
       transform="matrix(1.0065148,0,0,0.80234435,-1.0569113,53.001598)" />
    <text
       id="text1542-0"
       xml:space="preserve"
       style="font-size:2.64583325px;font-family:monospace;-inkscape-font-specification:'monospace, Normal';fill:#000000;fill-opacity:1;stroke:none;stroke-width:0.26458332"
       y="256.39697"
       x="168.81667"><tspan
         id="tspan1540-6"
         sodipodi:role="line"
         x="168.81667"
         y="256.39697"
         style="stroke-width:0.26458332">$\frac{1}{a^2}$</tspan></text>
  </g>
</svg>
