<?xml version="1.0" encoding="UTF-8" standalone="no"?>
<svg
   xmlns:dc="http://purl.org/dc/elements/1.1/"
   xmlns:cc="http://creativecommons.org/ns#"
   xmlns:rdf="http://www.w3.org/1999/02/22-rdf-syntax-ns#"
   xmlns:svg="http://www.w3.org/2000/svg"
   xmlns="http://www.w3.org/2000/svg"
   xmlns:sodipodi="http://sodipodi.sourceforge.net/DTD/sodipodi-0.dtd"
   xmlns:inkscape="http://www.inkscape.org/namespaces/inkscape"
   width="240mm"
   height="120mm"
   viewBox="0 0 240 120"
   version="1.1"
   id="svg8"
   inkscape:version="1.0.2 (1.0.2+r75+1)"
   sodipodi:docname="ezh-real.svg">
  <defs
     id="defs2">
    <inkscape:path-effect
       effect="spiro"
       id="path-effect1141"
       is_visible="true"
       lpeversion="1" />
    <inkscape:path-effect
       effect="spiro"
       id="path-effect1137"
       is_visible="true"
       lpeversion="1" />
    <inkscape:path-effect
       effect="spiro"
       id="path-effect1133"
       is_visible="true"
       lpeversion="1" />
    <inkscape:path-effect
       effect="spiro"
       id="path-effect1129"
       is_visible="true"
       lpeversion="1" />
    <inkscape:path-effect
       effect="spiro"
       id="path-effect1125"
       is_visible="true"
       lpeversion="1" />
    <inkscape:path-effect
       effect="spiro"
       id="path-effect1121"
       is_visible="true"
       lpeversion="1" />
    <inkscape:path-effect
       effect="spiro"
       id="path-effect1113"
       is_visible="true"
       lpeversion="1" />
    <inkscape:path-effect
       effect="spiro"
       id="path-effect1103"
       is_visible="true"
       lpeversion="1" />
    <inkscape:path-effect
       effect="spiro"
       id="path-effect1101"
       is_visible="true"
       lpeversion="1" />
    <inkscape:path-effect
       effect="spiro"
       id="path-effect1099"
       is_visible="true"
       lpeversion="1" />
    <inkscape:path-effect
       effect="spiro"
       id="path-effect1034"
       is_visible="true"
       lpeversion="1" />
    <inkscape:path-effect
       effect="spiro"
       id="path-effect1032"
       is_visible="true"
       lpeversion="1" />
    <inkscape:path-effect
       effect="spiro"
       id="path-effect992"
       is_visible="true"
       lpeversion="1" />
    <inkscape:path-effect
       effect="spiro"
       id="path-effect990"
       is_visible="true"
       lpeversion="1" />
    <inkscape:path-effect
       effect="spiro"
       id="path-effect988"
       is_visible="true"
       lpeversion="1" />
    <inkscape:path-effect
       effect="spiro"
       id="path-effect946"
       is_visible="true"
       lpeversion="1" />
    <inkscape:path-effect
       effect="spiro"
       id="path-effect942"
       is_visible="true"
       lpeversion="1" />
    <inkscape:path-effect
       effect="spiro"
       id="path-effect938"
       is_visible="true"
       lpeversion="1" />
    <inkscape:path-effect
       effect="spiro"
       id="path-effect934"
       is_visible="true"
       lpeversion="1" />
    <inkscape:path-effect
       effect="spiro"
       id="path-effect930"
       is_visible="true"
       lpeversion="1" />
    <inkscape:path-effect
       effect="spiro"
       id="path-effect926"
       is_visible="true"
       lpeversion="1" />
    <inkscape:path-effect
       effect="spiro"
       id="path-effect922"
       is_visible="true"
       lpeversion="1" />
    <inkscape:path-effect
       effect="spiro"
       id="path-effect918"
       is_visible="true"
       lpeversion="1" />
  </defs>
  <sodipodi:namedview
     id="base"
     pagecolor="#ffffff"
     bordercolor="#666666"
     borderopacity="1.0"
     inkscape:pageopacity="0.0"
     inkscape:pageshadow="2"
     inkscape:zoom="0.99437388"
     inkscape:cx="284.27627"
     inkscape:cy="182.72055"
     inkscape:document-units="mm"
     inkscape:current-layer="layer1"
     showgrid="false"
     showborder="true"
     width="200mm"
     showguides="true"
     inkscape:guide-bbox="true"
     inkscape:window-width="1920"
     inkscape:window-height="1050"
     inkscape:window-x="0"
     inkscape:window-y="30"
     inkscape:window-maximized="1"
     inkscape:document-rotation="0">
    <inkscape:grid
       type="xygrid"
       id="grid815"
       units="mm"
       spacingx="10"
       spacingy="10"
       empspacing="4"
       dotted="false" />
  </sodipodi:namedview>
  <metadata
     id="metadata5">
    <rdf:RDF>
      <cc:Work
         rdf:about="">
        <dc:format>image/svg+xml</dc:format>
        <dc:type
           rdf:resource="http://purl.org/dc/dcmitype/StillImage" />
        <dc:title></dc:title>
      </cc:Work>
    </rdf:RDF>
  </metadata>
  <g
     inkscape:label="Layer 1"
     inkscape:groupmode="layer"
     id="layer1"
     transform="translate(0,-177)">
    <circle
       style="fill:none;stroke:#000000;stroke-width:0.216;stroke-miterlimit:4;stroke-dasharray:none"
       id="path831"
       cx="95.202003"
       cy="188.84589"
       r="5.3902135" />
    <circle
       style="fill:none;stroke:#000000;stroke-width:0.216;stroke-miterlimit:4;stroke-dasharray:none"
       id="path831-3"
       cx="58.271591"
       cy="211.32436"
       r="5.3902135" />
    <circle
       style="fill:none;stroke:#000000;stroke-width:0.216;stroke-miterlimit:4;stroke-dasharray:none"
       id="path831-6"
       cx="89.669075"
       cy="210.52612"
       r="5.3902135" />
    <circle
       style="fill:none;stroke:#000000;stroke-width:0.216;stroke-miterlimit:4;stroke-dasharray:none"
       id="path831-7"
       cx="118.93791"
       cy="210.52612"
       r="5.3902135" />
    <circle
       style="fill:none;stroke:#000000;stroke-width:0.216;stroke-miterlimit:4;stroke-dasharray:none"
       id="path831-5"
       cx="151.93187"
       cy="208.66356"
       r="5.3902135" />
    <circle
       style="fill:none;stroke:#000000;stroke-width:0.216;stroke-miterlimit:4;stroke-dasharray:none"
       id="path831-35"
       cx="165.50197"
       cy="231.81255"
       r="5.3902135" />
    <circle
       style="fill:none;stroke:#000000;stroke-width:0.216;stroke-miterlimit:4;stroke-dasharray:none"
       id="path831-62"
       cx="151.93187"
       cy="253.89722"
       r="5.3902135" />
    <circle
       style="fill:none;stroke:#000000;stroke-width:0.216;stroke-miterlimit:4;stroke-dasharray:none"
       id="path831-9"
       cx="128.78288"
       cy="226.49094"
       r="5.3902135" />
    <circle
       style="fill:none;stroke:#000000;stroke-width:0.216;stroke-miterlimit:4;stroke-dasharray:none"
       id="path831-1"
       cx="110.15726"
       cy="225.95879"
       r="5.3902135" />
    <path
       style="fill:none;stroke:#000000;stroke-width:0.264583px;stroke-linecap:butt;stroke-linejoin:miter;stroke-opacity:1"
       d="M 59.987928,206.53037 96.00295,193.78192"
       id="path916"
       inkscape:path-effect="#path-effect918"
       inkscape:original-d="m 59.987928,206.53037 c 12.00527,-4.24922 24.010278,-8.49871 36.015022,-12.74845" />
    <path
       style="fill:none;stroke:#000000;stroke-width:0.264583px;stroke-linecap:butt;stroke-linejoin:miter;stroke-opacity:1"
       d="M 90.331559,205.29811 96.00295,193.78192"
       id="path920"
       inkscape:path-effect="#path-effect922"
       inkscape:original-d="m 90.331559,205.29811 c 1.626272,-3.78831 3.781192,-7.6772 5.671391,-11.51619" />
    <path
       style="fill:none;stroke:#000000;stroke-width:0.264583px;stroke-linecap:butt;stroke-linejoin:miter;stroke-opacity:1"
       d="M 119.06681,205.34172 96.00295,193.78192"
       id="path924"
       inkscape:path-effect="#path-effect926"
       inkscape:original-d="m 119.06681,205.34172 c -7.68769,-3.853 -15.37565,-7.70627 -23.06386,-11.5598" />
    <path
       style="fill:none;stroke:#000000;stroke-width:0.264583px;stroke-linecap:butt;stroke-linejoin:miter;stroke-opacity:1"
       d="M 152.22231,202.83396 96.00295,193.78192"
       id="path928"
       inkscape:path-effect="#path-effect930"
       inkscape:original-d="M 152.22231,202.83396 C 133.48279,199.81688 114.743,196.79953 96.00295,193.78192" />
    <path
       style="fill:none;stroke:#000000;stroke-width:0.264583px;stroke-linecap:butt;stroke-linejoin:miter;stroke-opacity:1"
       d="m 166.10503,226.67337 -14.24311,-12.3392"
       id="path932"
       inkscape:path-effect="#path-effect934"
       inkscape:original-d="m 166.10503,226.67337 c -4.74744,-4.1128 -9.49514,-8.22587 -14.24311,-12.3392" />
    <path
       style="fill:none;stroke:#000000;stroke-width:0.264583px;stroke-linecap:butt;stroke-linejoin:miter;stroke-opacity:1"
       d="m 151.822,247.90585 12.36369,-11.04827"
       id="path936"
       inkscape:path-effect="#path-effect938"
       inkscape:original-d="m 151.822,247.90585 c 4.1215,-3.68249 8.24273,-7.36525 12.36369,-11.04827" />
    <path
       style="fill:none;stroke:#000000;stroke-width:0.264583px;stroke-linecap:butt;stroke-linejoin:miter;stroke-opacity:1"
       d="m 127.88153,220.67625 -5.53965,-5.41354"
       id="path940"
       inkscape:path-effect="#path-effect942"
       inkscape:original-d="m 127.88153,220.67625 c -1.91434,-1.80425 -3.69284,-3.60877 -5.53965,-5.41354" />
    <path
       style="fill:none;stroke:#000000;stroke-width:0.264583px;stroke-linecap:butt;stroke-linejoin:miter;stroke-opacity:1"
       d="m 111.67741,220.57246 10.66447,-5.30975"
       id="path944"
       inkscape:path-effect="#path-effect946"
       inkscape:original-d="m 111.67741,220.57246 c 3.55509,-1.76965 7.10991,-3.53957 10.66447,-5.30975" />
    <circle
       style="fill:none;stroke:#000000;stroke-width:0.216;stroke-miterlimit:4;stroke-dasharray:none"
       id="path831-7-2"
       cx="85.118187"
       cy="231.95312"
       r="5.3902135" />
    <circle
       style="fill:none;stroke:#000000;stroke-width:0.216;stroke-miterlimit:4;stroke-dasharray:none"
       id="path831-9-7"
       cx="94.963158"
       cy="247.91794"
       r="5.3902135" />
    <circle
       style="fill:none;stroke:#000000;stroke-width:0.216;stroke-miterlimit:4;stroke-dasharray:none"
       id="path831-1-0"
       cx="76.337532"
       cy="247.38579"
       r="5.3902135" />
    <path
       style="fill:none;stroke:#000000;stroke-width:0.264583px;stroke-linecap:butt;stroke-linejoin:miter;stroke-opacity:1"
       d="m 85.247083,226.76872 -23.06386,-11.5598"
       id="path924-9"
       inkscape:path-effect="#path-effect988"
       inkscape:original-d="m 85.247083,226.76872 c -7.68769,-3.853 -15.37565,-7.70628 -23.06386,-11.5598" />
    <path
       style="fill:none;stroke:#000000;stroke-width:0.264583px;stroke-linecap:butt;stroke-linejoin:miter;stroke-opacity:1"
       d="m 94.061803,242.10324 -5.53965,-5.41354"
       id="path940-3"
       inkscape:path-effect="#path-effect990"
       inkscape:original-d="m 94.061803,242.10324 c -1.91434,-1.80424 -3.69284,-3.60877 -5.53965,-5.41354" />
    <path
       style="fill:none;stroke:#000000;stroke-width:0.264583px;stroke-linecap:butt;stroke-linejoin:miter;stroke-opacity:1"
       d="m 77.857683,241.99945 10.66447,-5.30975"
       id="path944-6"
       inkscape:path-effect="#path-effect992"
       inkscape:original-d="m 77.857683,241.99945 c 3.55509,-1.76965 7.10991,-3.53956 10.66447,-5.30975" />
    <circle
       style="fill:none;stroke:#000000;stroke-width:0.216;stroke-miterlimit:4;stroke-dasharray:none"
       id="path831-3-0"
       cx="24.451864"
       cy="232.75136"
       r="5.3902135" />
    <circle
       style="fill:none;stroke:#000000;stroke-width:0.216;stroke-miterlimit:4;stroke-dasharray:none"
       id="path831-6-6"
       cx="55.849346"
       cy="231.95312"
       r="5.3902135" />
    <path
       style="fill:none;stroke:#000000;stroke-width:0.264583px;stroke-linecap:butt;stroke-linejoin:miter;stroke-opacity:1"
       d="M 26.168201,227.95737 62.183223,215.20892"
       id="path916-2"
       inkscape:path-effect="#path-effect1032"
       inkscape:original-d="m 26.168201,227.95737 c 12.00527,-4.24921 24.010278,-8.4987 36.015022,-12.74845" />
    <path
       style="fill:none;stroke:#000000;stroke-width:0.264583px;stroke-linecap:butt;stroke-linejoin:miter;stroke-opacity:1"
       d="m 56.511832,226.72511 5.671391,-11.51619"
       id="path920-6"
       inkscape:path-effect="#path-effect1034"
       inkscape:original-d="m 56.511832,226.72511 c 1.626272,-3.7883 3.781192,-7.67719 5.671391,-11.51619" />
    <circle
       style="fill:none;stroke:#000000;stroke-width:0.216;stroke-miterlimit:4;stroke-dasharray:none"
       id="path831-7-1"
       cx="54.393719"
       cy="255.47751"
       r="5.3902135" />
    <circle
       style="fill:none;stroke:#000000;stroke-width:0.216;stroke-miterlimit:4;stroke-dasharray:none"
       id="path831-9-8"
       cx="64.238686"
       cy="271.44235"
       r="5.3902135" />
    <circle
       style="fill:none;stroke:#000000;stroke-width:0.216;stroke-miterlimit:4;stroke-dasharray:none"
       id="path831-1-7"
       cx="45.613064"
       cy="270.91019"
       r="5.3902135" />
    <path
       style="fill:none;stroke:#000000;stroke-width:0.264583px;stroke-linecap:butt;stroke-linejoin:miter;stroke-opacity:1"
       d="m 63.337336,265.62764 -5.53965,-5.41354"
       id="path940-0"
       inkscape:path-effect="#path-effect1101"
       inkscape:original-d="m 63.337336,265.62764 c -1.91434,-1.80425 -3.69284,-3.60877 -5.53965,-5.41354" />
    <path
       style="fill:none;stroke:#000000;stroke-width:0.264583px;stroke-linecap:butt;stroke-linejoin:miter;stroke-opacity:1"
       d="m 47.133216,265.52385 10.66447,-5.30975"
       id="path944-2"
       inkscape:path-effect="#path-effect1103"
       inkscape:original-d="m 47.133216,265.52385 c 3.55509,-1.76965 7.10991,-3.53957 10.66447,-5.30975" />
    <path
       style="fill:none;stroke:#000000;stroke-width:0.264583px;stroke-linecap:butt;stroke-linejoin:miter;stroke-opacity:1"
       d="m 53.898937,250.51916 0.991304,-13.16812"
       id="path1111"
       inkscape:path-effect="#path-effect1113"
       inkscape:original-d="m 53.898937,250.51916 c 0.3307,-4.33865 0.661133,-8.77848 0.991304,-13.16812" />
    <path
       style="fill:none;stroke:#fa3c00;stroke-width:0.264583px;stroke-linecap:butt;stroke-linejoin:miter;stroke-opacity:1"
       d="m 74.806542,273.7874 c -1.396574,-6.41393 -3.587029,-12.65459 -6.505504,-18.53433 -1.118056,-2.25251 -2.369217,-4.48787 -4.173032,-6.24003 -2.781731,-2.70208 -6.749441,-4.03853 -10.625551,-3.91592 -3.876109,0.12262 -7.641696,1.63201 -10.757195,3.94132 -1.929754,1.4304 -3.660529,3.20718 -4.680117,5.38214 -1.084878,2.31423 -1.305797,4.94642 -1.172694,7.49885 0.225439,4.3231 1.410708,8.53904 2.808055,12.63629 0.519872,1.52435 1.074112,3.0471 1.872046,4.4461 2.282319,4.00154 6.570209,6.74625 11.141474,7.31623 4.571264,0.56997 9.330195,-0.99024 12.796044,-4.02491 1.940461,-1.69905 3.477067,-3.81129 5.352497,-5.58186 1.192785,-1.1261 2.519806,-2.10988 3.943977,-2.92386 z"
       id="path1119"
       inkscape:path-effect="#path-effect1121"
       inkscape:original-d="m 74.806542,273.7874 c 0.773133,-7.07586 -3.024084,-12.57661 -6.505504,-18.53433 -0.98325,-1.68263 -2.367375,-5.0057 -4.173032,-6.24003 -5.557168,-3.79881 -15.638031,-3.95172 -21.382746,0.0254 -1.991543,1.37876 -3.26753,3.6164 -4.680117,5.38214 -1.096346,1.37043 -1.038841,5.75879 -1.172694,7.49885 -0.373009,4.8491 0.848932,8.22824 2.808055,12.63629 0.505052,1.13637 1.065927,3.37128 1.872046,4.4461 5.306737,7.07566 16.793887,5.97018 23.937518,3.29132 2.904035,-1.08901 3.573909,-3.80327 5.352497,-5.58186 1.346366,-1.34636 2.776103,-1.25887 3.943977,-2.92386 z" />
    <path
       style="fill:none;stroke:#fa3c00;stroke-width:0.264583px;stroke-linecap:butt;stroke-linejoin:miter;stroke-opacity:1"
       d="m 32.675766,224.60027 c -3.089433,-4.81911 -8.537306,-8.04408 -14.248339,-8.43457 -2.467583,-0.16872 -4.990752,0.17282 -7.254156,1.17003 -3.1625286,1.39335 -5.7126914,4.05505 -7.1244404,7.2094 -1.411749,3.15436 -1.705433,6.76836 -0.9882497,10.14899 0.7171833,3.38063 2.4203944,6.52329 4.734752,9.08976 2.3143571,2.56647 5.2264491,4.56556 8.3856441,5.96645 3.772545,1.67287 8.073094,2.50024 12.056547,1.42195 1.991726,-0.53914 3.867739,-1.55635 5.32331,-3.01887 1.455571,-1.46252 2.475067,-3.37808 2.758692,-5.4219 0.208959,-1.50578 0.02266,-3.04306 -0.326265,-4.52268 -0.348928,-1.47962 -0.858331,-2.91562 -1.307275,-4.36802 -0.932046,-3.01531 -1.605393,-6.11054 -2.01022,-9.24054 z"
       id="path1123"
       inkscape:path-effect="#path-effect1125"
       inkscape:original-d="m 32.675766,224.60027 c -4.400616,-2.3067 -8.884187,-8.00544 -14.248339,-8.43457 -1.352531,-0.10821 -5.964453,-0.54955 -7.254156,1.17003 -5.1981346,6.93072 -3.9108346,28.29834 5.007706,32.4146 6.878271,3.17459 16.668221,-0.0782 20.138549,-7.01882 1.342263,-2.68453 -1.63354,-6.25262 -1.63354,-8.8907 0,-3.00619 0.586216,-7.25349 -2.01022,-9.24054 z" />
    <path
       style="fill:none;stroke:#fa3c00;stroke-width:0.264583px;stroke-linecap:butt;stroke-linejoin:miter;stroke-opacity:1"
       d="m 67.891588,246.7127 c 1.157418,2.411 2.302549,4.82789 3.435334,7.25056 0.641144,1.3712 1.282302,2.7513 2.135411,4.00169 0.853108,1.25038 1.936552,2.37665 3.281655,3.07088 1.985173,1.02459 4.325614,1.01981 6.558026,0.93601 6.376921,-0.23938 13.007932,-1.02508 18.366216,-4.4908 2.67914,-1.73287 4.96947,-4.13427 6.30759,-7.03083 1.33812,-2.89656 1.67131,-6.30006 0.64274,-9.32043 -0.88264,-2.59186 -2.69004,-4.77088 -4.6859,-6.64527 -1.99586,-1.8744 -4.211104,-3.50516 -6.189016,-5.39849 -1.474119,-1.41108 -2.809905,-2.96186 -4.294486,-4.36192 -1.484581,-1.40007 -3.147681,-2.66366 -5.065732,-3.36026 -1.955767,-0.7103 -4.117203,-0.7962 -6.149819,-0.35121 -2.032615,0.445 -3.936547,1.40893 -5.570686,2.697 -3.268277,2.57615 -5.397824,6.36029 -6.765905,10.2905 -1.417815,4.07308 -2.100523,8.40082 -2.005428,12.71257 z"
       id="path1127"
       inkscape:path-effect="#path-effect1129"
       inkscape:original-d="m 67.891588,246.7127 c 1.34035,2.30548 2.282063,4.8299 3.435334,7.25056 1.139745,2.39228 2.908998,5.81855 5.417066,7.07257 2.254686,1.12733 4.142298,0.79412 6.558026,0.93601 12.125748,0.71223 28.693936,-5.64379 25.316546,-20.84206 -1.16396,-5.23781 -6.69709,-9.25798 -10.874916,-12.04376 -3.282458,-2.18875 -5.822461,-5.9533 -9.360218,-7.72218 -7.051304,-3.52565 -16.060493,7.17798 -18.48641,12.63629 -1.837172,4.13363 -0.165627,8.89977 -2.005428,12.71257 z" />
    <path
       style="fill:none;stroke:#fa3c00;stroke-width:0.264583px;stroke-linecap:butt;stroke-linejoin:miter;stroke-opacity:1"
       d="m 85.291217,200.79915 c -2.234506,0.28601 -4.381904,1.22231 -6.112085,2.66498 -1.730182,1.44267 -3.037247,3.38678 -3.720268,5.53347 -0.912309,2.86734 -0.683415,6.08084 0.626096,8.78992 1.309511,2.70908 3.685596,4.88468 6.499318,5.95093 2.813722,1.06625 6.034907,1.01172 8.810926,-0.14916 2.776019,-1.16088 5.077103,-3.41566 6.294166,-6.16751 0.848432,-1.91835 1.177248,-4.06357 0.942351,-6.14798 -0.234897,-2.08441 -1.032903,-4.10264 -2.287003,-5.78406 -1.2541,-1.68141 -2.961072,-3.02168 -4.892006,-3.84108 -1.930934,-0.8194 -4.08087,-1.11582 -6.161495,-0.84951 z"
       id="path1131"
       inkscape:path-effect="#path-effect1133"
       inkscape:original-d="m 85.291217,200.79915 c -4.897038,-0.36651 -8.888388,3.47864 -9.832353,8.19845 -1.729229,8.64612 19.425208,12.16458 22.230506,8.42418 5.63225,-7.50966 -4.507661,-19.60742 -12.398153,-16.62263 z" />
    <path
       style="fill:none;stroke:#fa3c00;stroke-width:0.264583px;stroke-linecap:butt;stroke-linejoin:miter;stroke-opacity:1"
       d="m 106.74982,213.75702 c -1.24322,2.54202 -2.22254,5.21301 -2.91712,7.95618 -0.2926,1.1556 -0.53585,2.33282 -0.55292,3.52476 -0.0171,1.19195 0.2025,2.40712 0.78693,3.4461 0.51764,0.92024 1.30614,1.6726 2.20432,2.22764 0.89817,0.55504 1.90433,0.91949 2.932,1.16174 2.05535,0.48451 4.19043,0.48905 6.28261,0.77538 3.67044,0.50232 7.17753,1.86698 10.84104,2.41751 1.83176,0.27527 3.71118,0.34336 5.53019,-0.006 1.81901,-0.34973 3.57998,-1.13572 4.92325,-2.41115 1.60062,-1.51978 2.52856,-3.67066 2.77304,-5.86428 0.24448,-2.19362 -0.16063,-4.42675 -0.93403,-6.49401 -1.54678,-4.13454 -4.48164,-7.56724 -6.98146,-11.20562 -0.88801,-1.29245 -1.75998,-2.65482 -3.05591,-3.53775 -1.13217,-0.77136 -2.50403,-1.11354 -3.86357,-1.28214 -1.35955,-0.1686 -2.73545,-0.17793 -4.09375,-0.35628 -1.34022,-0.17597 -2.65713,-0.51571 -4.00303,-0.64099 -1.34591,-0.12528 -2.76169,-0.0189 -3.94139,0.64099 -0.73959,0.41371 -1.35267,1.02726 -1.85713,1.70819 -0.50446,0.68093 -0.90678,1.43107 -1.29679,2.18342 -0.39001,0.75236 -0.77079,1.51195 -1.23711,2.21955 -0.46633,0.70759 -1.02363,1.36626 -1.71341,1.85855 -0.12969,0.0926 -0.26404,0.17926 -0.38494,0.28304 -0.1209,0.10378 -0.22918,0.22674 -0.29193,0.3732 -0.0539,0.12572 -0.0723,0.26641 -0.0525,0.40175 0.0197,0.13535 0.0775,0.26494 0.16503,0.37005 0.0875,0.10511 0.20447,0.18544 0.334,0.22937 0.12952,0.0439 0.27122,0.0513 0.40462,0.0212 z"
       id="path1135"
       inkscape:path-effect="#path-effect1137"
       inkscape:original-d="m 106.74982,213.75702 c -2.13284,1.14767 -2.6438,5.49635 -2.91712,7.95618 -0.17363,1.56271 -0.46519,5.45 0.23401,6.97086 1.45459,3.16397 8.6557,3.66235 11.41893,4.16476 5.49079,0.99833 16.76311,6.04182 21.29448,0 6.66295,-8.88393 0.84188,-17.14044 -5.14245,-23.56391 -0.87214,-0.93614 -1.89127,-2.76133 -3.05591,-3.53775 -2.50042,-1.66693 -5.17703,-1.36039 -7.95732,-1.63842 -2.48443,-0.24844 -5.5706,-1.69557 -7.94442,0 -2.78362,1.98829 -3.72708,5.59235 -6.10444,7.96971 -0.22221,0.22221 -0.77488,0.35766 -0.67687,0.65624 0.13828,0.4213 0.56741,0.68155 0.85111,1.02233 z" />
    <path
       style="fill:none;stroke:#fa3c00;stroke-width:0.264583px;stroke-linecap:butt;stroke-linejoin:miter;stroke-opacity:1"
       d="m 162.07241,266.63636 c -5.4771,-0.59139 -10.63702,-3.66813 -13.76123,-8.20549 -3.12422,-4.53736 -4.15766,-10.4554 -2.75615,-15.78307 0.64932,-2.4683 1.78114,-4.77717 2.74429,-7.14073 0.96315,-2.36356 1.77129,-4.854 1.71776,-7.40571 -0.057,-2.71916 -1.09071,-5.32798 -2.36977,-7.72821 -1.27906,-2.40022 -2.81629,-4.66012 -4.00714,-7.10531 -1.19085,-2.44519 -2.03585,-5.14664 -1.79617,-7.85581 0.11984,-1.35459 0.51598,-2.69323 1.22486,-3.85373 0.70889,-1.16049 1.73751,-2.1367 2.97013,-2.71107 1.24795,-0.58151 2.67077,-0.73787 4.03678,-0.56598 1.36602,0.17188 2.67885,0.661 3.89123,1.31345 2.42476,1.30489 4.44114,3.23685 6.62882,4.90905 3.38782,2.58956 7.21396,4.57358 10.53024,7.25415 4.78858,3.87064 8.42904,9.22969 9.90824,15.20667 1.47919,5.97699 0.71364,12.54627 -2.41466,17.84968 -3.29315,5.58289 -8.83841,9.41282 -13.10761,14.29006 -0.99834,1.14053 -1.93724,2.35514 -2.56482,3.73487 -0.54141,1.19027 -0.84084,2.49 -0.8748,3.79718 z"
       id="path1139"
       inkscape:path-effect="#path-effect1141"
       inkscape:original-d="m 162.07241,266.63636 c -18.52868,-0.28913 -21.47371,-7.92602 -16.51738,-23.98856 1.62903,-5.27937 4.84256,-8.82188 4.46205,-14.54644 -0.5921,-8.90774 -21.23989,-22.78097 -3.97809,-29.25413 6.2961,-2.36103 10.15469,1.79997 14.55683,5.65652 3.13715,2.74834 7.85114,4.0392 10.53024,7.25415 3.89522,4.6743 8.67429,26.76129 7.49358,33.05635 -2.84167,15.15069 -7.8692,6.95639 -13.10761,14.29006 -0.67997,0.95195 -2.2269,2.72105 -2.56482,3.73487 -0.5575,1.67262 0.49736,2.24566 -0.8748,3.79718 z" />
  </g>
</svg>
