<?xml version="1.0" encoding="UTF-8" standalone="no"?>
<svg
   xmlns:dc="http://purl.org/dc/elements/1.1/"
   xmlns:cc="http://creativecommons.org/ns#"
   xmlns:rdf="http://www.w3.org/1999/02/22-rdf-syntax-ns#"
   xmlns:svg="http://www.w3.org/2000/svg"
   xmlns="http://www.w3.org/2000/svg"
   xmlns:sodipodi="http://sodipodi.sourceforge.net/DTD/sodipodi-0.dtd"
   xmlns:inkscape="http://www.inkscape.org/namespaces/inkscape"
   width="240mm"
   height="120mm"
   viewBox="0 0 240 120"
   version="1.1"
   id="svg8"
   inkscape:version="1.0.2 (1.0.2+r75+1)"
   sodipodi:docname="union.svg">
  <defs
     id="defs2">
    <inkscape:path-effect
       effect="spiro"
       id="path-effect1322"
       is_visible="true"
       lpeversion="1" />
    <marker
       style="overflow:visible;"
       id="Arrow1Lend"
       refX="0.0"
       refY="0.0"
       orient="auto"
       inkscape:stockid="Arrow1Lend"
       inkscape:isstock="true">
      <path
         transform="scale(0.8) rotate(180) translate(12.5,0)"
         style="fill-rule:evenodd;stroke:#ff0000;stroke-width:1pt;stroke-opacity:1;fill:#ff0000;fill-opacity:1"
         d="M 0.0,0.0 L 5.0,-5.0 L -12.5,0.0 L 5.0,5.0 L 0.0,0.0 z "
         id="path964" />
    </marker>
    <inkscape:path-effect
       effect="spiro"
       id="path-effect959"
       is_visible="true"
       lpeversion="1" />
    <marker
       style="overflow:visible"
       id="Arrow1Lend-3"
       refX="0"
       refY="0"
       orient="auto"
       inkscape:stockid="Arrow1Lend"
       inkscape:isstock="true">
      <path
         transform="matrix(-0.8,0,0,-0.8,-10,0)"
         style="fill:#ff0000;fill-opacity:1;fill-rule:evenodd;stroke:#ff0000;stroke-width:1pt;stroke-opacity:1"
         d="M 0,0 5,-5 -12.5,0 5,5 Z"
         id="path964-5" />
    </marker>
  </defs>
  <sodipodi:namedview
     id="base"
     pagecolor="#ffffff"
     bordercolor="#666666"
     borderopacity="1.0"
     inkscape:pageopacity="0.0"
     inkscape:pageshadow="2"
     inkscape:zoom="0.99437388"
     inkscape:cx="390.31496"
     inkscape:cy="189.7898"
     inkscape:document-units="mm"
     inkscape:current-layer="layer1"
     showgrid="false"
     showborder="true"
     width="200mm"
     showguides="true"
     inkscape:guide-bbox="true"
     inkscape:window-width="1920"
     inkscape:window-height="1050"
     inkscape:window-x="0"
     inkscape:window-y="30"
     inkscape:window-maximized="1"
     inkscape:document-rotation="0">
    <inkscape:grid
       type="xygrid"
       id="grid815"
       units="mm"
       spacingx="10"
       spacingy="10"
       empspacing="4"
       dotted="false" />
  </sodipodi:namedview>
  <metadata
     id="metadata5">
    <rdf:RDF>
      <cc:Work
         rdf:about="">
        <dc:format>image/svg+xml</dc:format>
        <dc:type
           rdf:resource="http://purl.org/dc/dcmitype/StillImage" />
        <dc:title></dc:title>
      </cc:Work>
    </rdf:RDF>
  </metadata>
  <g
     inkscape:label="Layer 1"
     inkscape:groupmode="layer"
     id="layer1"
     transform="translate(0,-177)">
    <circle
       style="fill:none;stroke:#00ffa9;stroke-width:0.865;stroke-miterlimit:4;stroke-dasharray:none"
       id="path831"
       cx="71.524605"
       cy="237.70476"
       r="34.042034" />
    <circle
       style="fill:none;stroke:#00ffa9;stroke-width:0.865;stroke-miterlimit:4;stroke-dasharray:none"
       id="path831-3"
       cx="176.06485"
       cy="237.06448"
       r="34.042034" />
    <rect
       style="fill:none;stroke:#00ffa9;stroke-width:0.865;stroke-miterlimit:4;stroke-dasharray:none"
       id="rect855"
       width="208.06351"
       height="90.634216"
       x="16.066809"
       y="190.11737" />
    <text
       style="font-size:2.64583px;font-family:monospace;-inkscape-font-specification:'monospace, Normal';fill:#000000;fill-opacity:1;stroke:none;stroke-width:0.264583"
       xml:space="preserve"
       id="text859"
       y="293.54428"
       x="115.79473"><tspan
         sodipodi:role="line"
         id="tspan857"
         x="115.79473"
         y="293.54428"
         style="stroke-width:0.264583">$A\cup B$</tspan></text>
    <text
       style="font-size:2.64583px;font-family:monospace;-inkscape-font-specification:'monospace, Normal';fill:#000000;fill-opacity:1;stroke:none;stroke-width:0.264583"
       xml:space="preserve"
       id="text873"
       y="229.69772"
       x="64.470154"><tspan
         sodipodi:role="line"
         id="tspan871"
         x="64.470154"
         y="229.69772"
         style="stroke-width:0.264583">$A$</tspan></text>
    <text
       style="font-size:2.64583px;font-family:monospace;-inkscape-font-specification:'monospace, Normal';fill:#000000;fill-opacity:1;stroke:none;stroke-width:0.264583"
       xml:space="preserve"
       id="text887"
       y="232.37706"
       x="172.6649"><tspan
         sodipodi:role="line"
         id="tspan885"
         x="172.6649"
         y="232.37706"
         style="stroke-width:0.264583">$B$</tspan></text>
    <circle
       style="fill:none;stroke:#00ffa9;stroke-width:0.997641;stroke-miterlimit:4;stroke-dasharray:none"
       id="path917"
       cx="56.876362"
       cy="257.66058"
       r="6.7387037" />
    <circle
       style="fill:none;stroke:#00ffa9;stroke-width:0.997641;stroke-miterlimit:4;stroke-dasharray:none"
       id="path917-6"
       cx="85.411789"
       cy="214.7834"
       r="6.7387037" />
    <circle
       style="fill:none;stroke:#00ffa9;stroke-width:0.997641;stroke-miterlimit:4;stroke-dasharray:none"
       id="path917-7"
       cx="164.35765"
       cy="258.67148"
       r="6.7387037" />
    <circle
       style="fill:none;stroke:#00ffa9;stroke-width:0.997641;stroke-miterlimit:4;stroke-dasharray:none"
       id="path917-5"
       cx="189.71529"
       cy="220.63718"
       r="6.7387037" />
    <path
       style="fill:none;stroke:#ff0000;stroke-width:0.264583px;stroke-linecap:butt;stroke-linejoin:miter;stroke-opacity:1;marker-end:url(#Arrow1Lend)"
       d="m 62.653182,254.54189 c 0.432806,-0.38226 0.871857,-0.75744 1.316921,-1.12535 0.516655,-0.42709 1.044893,-0.84672 1.633781,-1.16696 0.588887,-0.32023 1.245854,-0.539 1.916176,-0.53619 0.845278,0.004 1.645888,0.3533 2.472623,0.52941 0.413368,0.0881 0.841407,0.13274 1.259024,0.0678 0.417616,-0.065 0.825982,-0.24706 1.111196,-0.55896 0.262985,-0.28759 0.407923,-0.67156 0.443041,-1.05967 0.03512,-0.38812 -0.03445,-0.78056 -0.160034,-1.14947 -0.25116,-0.73783 -0.717322,-1.38026 -1.06912,-2.07575 -0.175899,-0.34775 -0.324385,-0.71254 -0.398042,-1.09521 -0.07366,-0.38268 -0.06996,-0.78532 0.05268,-1.15522 0.122644,-0.3699 0.37062,-0.70449 0.711077,-0.89412 0.170229,-0.0948 0.361649,-0.15257 0.556258,-0.16229 0.194609,-0.01 0.392125,0.0292 0.56616,0.11679 0.302596,0.15236 0.516308,0.43963 0.668297,0.74241 0.151989,0.30278 0.253096,0.62868 0.39872,0.93458 0.173473,0.3644 0.411077,0.69977 0.708258,0.97282 0.297182,0.27306 0.654565,0.48282 1.042472,0.5942 0.387907,0.11138 0.806162,0.12266 1.195754,0.0173 0.389592,-0.10533 0.748677,-0.32897 1.003372,-0.64203 0.216333,-0.26591 0.354602,-0.59085 0.420369,-0.92728 0.06577,-0.33642 0.0608,-0.68431 0.0099,-1.02331 -0.101713,-0.678 -0.381983,-1.31391 -0.642004,-1.94828 -0.26002,-0.63436 -0.505424,-1.29045 -0.53101,-1.97556 -0.01279,-0.34255 0.03095,-0.68948 0.151843,-1.01025 0.120893,-0.32077 0.321039,-0.61466 0.590856,-0.8261 0.399527,-0.31308 0.92635,-0.42739 1.433775,-0.41466 0.507425,0.0127 1.003848,0.14208 1.494469,0.27221 0.490621,0.13013 0.985842,0.26261 1.493063,0.28182 0.50722,0.0192 1.035115,-0.0846 1.442513,-0.3874 0.240241,-0.17854 0.430346,-0.42054 0.562695,-0.68901 0.13235,-0.26847 0.208071,-0.56296 0.239175,-0.86066 0.06221,-0.5954 -0.05154,-1.19489 -0.196415,-1.77574 -0.144872,-0.58085 -0.32197,-1.1567 -0.390024,-1.75147 -0.06805,-0.59476 -0.01932,-1.22133 0.265378,-1.74794 0.182116,-0.33687 0.454291,-0.61995 0.764125,-0.845 0.309833,-0.22505 0.657129,-0.39421 1.01367,-0.53394 0.713081,-0.27946 1.469796,-0.44567 2.162417,-0.77256 0.880373,-0.4155 1.636627,-1.08991 2.149819,-1.91716 0.513191,-0.82724 0.781484,-1.80437 0.762682,-2.77768 -0.0188,-0.97332 -0.324633,-1.93935 -0.869391,-2.74616 -0.544757,-0.80681 -1.326493,-1.45151 -2.222257,-1.8327"
       id="path957"
       inkscape:path-effect="#path-effect959"
       inkscape:original-d="m 62.653182,254.54189 c -0.79764,-0.30796 0.940932,-1.46358 1.316921,-1.12535 4.301908,3.86991 3.361547,-1.53945 3.549957,-1.70315 1.067001,-0.92705 3.920299,1.12085 4.842843,0.0382 1.202468,-1.41116 -0.413819,-6.18616 0.702019,-7.47494 0.0722,-0.0834 0.885328,1.4953 1.067017,1.67699 0.534342,0.53434 3.476307,2.36297 3.949856,0.94232 0.653883,-1.96165 -1.188336,-6.12494 0,-7.71078 0.03659,-0.0488 4.39066,0.73407 5.86382,-0.24803 1.912149,-1.27477 -0.575678,-5.77023 0.480809,-6.82482 0.807929,-0.80648 3.374948,-1.00514 3.940212,-2.1515 1.47796,-2.99731 -0.459481,-8.40645 -0.179147,-9.2737" />
    <path
       style="fill:none;stroke:#ff0000;stroke-width:0.264583px;stroke-linecap:butt;stroke-linejoin:miter;stroke-opacity:1;marker-end:url(#Arrow1Lend-3)"
       d="m 170.174,260.12601 c 0.43281,-0.38226 0.87186,-0.75744 1.31692,-1.12535 0.51666,-0.42709 1.04489,-0.84672 1.63378,-1.16696 0.58889,-0.32023 1.24586,-0.539 1.91618,-0.53619 0.84528,0.004 1.64589,0.3533 2.47262,0.52941 0.41337,0.0881 0.84141,0.13274 1.25902,0.0678 0.41762,-0.065 0.82599,-0.24706 1.1112,-0.55896 0.26298,-0.28759 0.40792,-0.67156 0.44304,-1.05967 0.0351,-0.38812 -0.0345,-0.78056 -0.16003,-1.14947 -0.25116,-0.73783 -0.71732,-1.38026 -1.06912,-2.07575 -0.1759,-0.34775 -0.32439,-0.71253 -0.39804,-1.09521 -0.0737,-0.38268 -0.07,-0.78532 0.0527,-1.15522 0.12264,-0.3699 0.37062,-0.70449 0.71107,-0.89411 0.17023,-0.0948 0.36165,-0.15258 0.55626,-0.1623 0.19461,-0.01 0.39213,0.0292 0.56616,0.11679 0.3026,0.15236 0.51631,0.43963 0.6683,0.74241 0.15199,0.30278 0.2531,0.62868 0.39872,0.93458 0.17347,0.3644 0.41108,0.69977 0.70826,0.97282 0.29718,0.27306 0.65457,0.48282 1.04247,0.5942 0.38791,0.11138 0.80616,0.12266 1.19576,0.0173 0.38959,-0.10533 0.74868,-0.32897 1.00337,-0.64203 0.21633,-0.26591 0.3546,-0.59085 0.42037,-0.92728 0.0658,-0.33642 0.0608,-0.68431 0.01,-1.02331 -0.10171,-0.678 -0.38198,-1.31391 -0.642,-1.94828 -0.26002,-0.63436 -0.50542,-1.29045 -0.53101,-1.97556 -0.0128,-0.34255 0.031,-0.68948 0.15184,-1.01025 0.1209,-0.32077 0.32104,-0.61466 0.59086,-0.8261 0.39953,-0.31308 0.92635,-0.42739 1.43378,-0.41466 0.50742,0.0127 1.00384,0.14208 1.49446,0.27221 0.49063,0.13013 0.98585,0.26261 1.49307,0.28182 0.50722,0.0192 1.03511,-0.0846 1.44251,-0.3874 0.24024,-0.17854 0.43035,-0.42054 0.56269,-0.68901 0.13235,-0.26847 0.20807,-0.56296 0.23918,-0.86066 0.0622,-0.5954 -0.0516,-1.19489 -0.19642,-1.77574 -0.14487,-0.58085 -0.32197,-1.1567 -0.39003,-1.75147 -0.068,-0.59476 -0.0193,-1.22133 0.26538,-1.74794 0.18212,-0.33687 0.45429,-0.61995 0.76413,-0.845 0.30983,-0.22505 0.65713,-0.39422 1.01367,-0.53394 0.71308,-0.27946 1.4698,-0.44567 2.16242,-0.77256 0.88037,-0.4155 1.63663,-1.08991 2.14982,-1.91716 0.51319,-0.82724 0.78149,-1.80437 0.76268,-2.77768 -0.0188,-0.97332 -0.32463,-1.93935 -0.86939,-2.74616 -0.54476,-0.80681 -1.3265,-1.45151 -2.22226,-1.8327"
       id="path957-6"
       inkscape:path-effect="#path-effect1322"
       inkscape:original-d="m 170.174,260.12601 c -0.79764,-0.30796 0.94093,-1.46358 1.31692,-1.12535 4.30191,3.86991 3.36155,-1.53945 3.54996,-1.70315 1.067,-0.92705 3.9203,1.12085 4.84284,0.0382 1.20247,-1.41116 -0.41382,-6.18616 0.70202,-7.47494 0.0722,-0.0834 0.88533,1.4953 1.06702,1.67699 0.53434,0.53434 3.47631,2.36297 3.94986,0.94232 0.65388,-1.96165 -1.18834,-6.12494 0,-7.71078 0.0366,-0.0488 4.39065,0.73407 5.86382,-0.24803 1.91214,-1.27477 -0.57568,-5.77023 0.4808,-6.82482 0.80793,-0.80648 3.37495,-1.00514 3.94022,-2.1515 1.47796,-2.99731 -0.45949,-8.40645 -0.17915,-9.2737" />
  </g>
</svg>
